
<svg version="1.1" id="svgtorta" xmlns="http://www.w3.org/2000/svg" xmlns:xlink="http://www.w3.org/1999/xlink" x="0px" y="0px"
	 viewBox="0 0 640 640" width="100%" heigth="100%" style="enable-background:new 0 0 640 640;" xml:space="preserve">
<style type="text/css">
	.st0{fill:#32ABDF;stroke:#231F20;stroke-miterlimit:10;}
	.st1{fill:#3FB34F;stroke:#231F20;stroke-miterlimit:10;}
	.st2{fill:#D9C827;stroke:#231F20;stroke-miterlimit:10;}
	.st3{fill:#E9E4C4;stroke:#231F20;stroke-miterlimit:10;}
	.st4{fill:#D1EADC;stroke:#231F20;stroke-miterlimit:10;}
	.st5{fill:#FFFEF3;stroke:#231F20;stroke-miterlimit:10;}
	.st6{fill:#EFF9FE;stroke:#231F20;stroke-miterlimit:10;}
	.st7{fill:none;}
	.st8{fill:#231F20;}
</style>
<path class="st0" d="M73.91,460.78C41.09,403.45,28.95,335.71,40.75,269.8c5.67-31.66,16.86-62.91,33.94-92.36
	c17.08-29.45,38.63-54.67,63.29-75.32c51.34-42.99,116.17-66.1,182.23-66.09l0.02-9.61l0.05-24.44
	C246.27,1.96,173.64,27.85,116.13,76c-27.62,23.12-51.75,51.37-70.88,84.36c-19.13,32.99-31.67,67.99-38.02,103.45
	C-6,337.65,7.61,413.53,44.39,477.75l21.19-12.18L73.91,460.78z"/>
<path class="st1" d="M565.31,461.97c-20.64,35.6-47.82,65.01-79.13,87.63c-32.45,23.45-69.34,39.58-107.99,47.7
	c-38.46,8.07-78.67,8.19-118.01-0.32l0,0c-28.26-6.12-56.06-16.67-82.43-31.96c-8.76-5.08-17.14-10.56-25.14-16.4
	c-32.93-24.01-59.38-54.1-78.67-87.8c-0.01-0.01-0.01-0.02-0.02-0.03l-8.34,4.79l-21.19,12.18C66,515.5,95.62,549.2,132.51,576.09
	c8.96,6.54,18.35,12.68,28.16,18.37c29.54,17.13,60.68,28.95,92.33,35.8l0,0c44.06,9.54,89.09,9.4,132.18,0.36
	c43.3-9.09,84.61-27.16,120.96-53.42c35.06-25.34,65.5-58.28,88.63-98.15l-21.14-12.26L565.31,461.97z"/>
<path class="st2" d="M615.85,203.94c-11.47-29.34-27.31-57.08-47.26-82.14c-19.37-24.33-42.62-46.12-69.46-64.4
	c-6.39-4.35-12.98-8.52-19.78-12.46c-21.14-12.26-43.09-21.8-65.47-28.75c-30.75-9.56-62.3-14.2-93.6-14.21l-0.07,34.05
	c0.01,0,0.02,0,0.04,0c27.94,0.01,56.11,4.15,83.56,12.68c19.98,6.21,39.58,14.73,58.45,25.67c6.07,3.52,11.95,7.24,17.66,11.12
	c23.97,16.32,44.72,35.78,62.02,57.5c17.82,22.37,31.96,47.13,42.2,73.33c10.31,26.38,16.65,54.21,18.75,82.52
	c2.08,27.99,0.02,56.44-6.43,84.4c-6.22,26.97-16.52,53.48-31.14,78.69c0,0-0.01,0.01-0.01,0.01c0,0,0,0,0,0l29.45,17.08
	c0,0,0.01-0.01,0.01-0.01c16.37-28.23,27.91-57.93,34.88-88.14c7.23-31.32,9.53-63.18,7.2-94.53
	C634.49,264.66,627.39,233.49,615.85,203.94z"/>
<path class="st3" d="M371.94,567.61c-34.34,7.2-70.24,7.31-105.36-0.29c-0.01,0-0.02-0.01-0.03-0.01l-1.79,8.33l-4.58,21.33
	c39.34,8.51,79.55,8.39,118.01,0.32l-4.5-21.35L371.94,567.61z"/>
<path class="st3" d="M170.5,524.13c-0.01-0.01-0.02-0.01-0.03-0.02l-5.02,6.88l-12.86,17.62c8,5.83,16.38,11.32,25.14,16.4
	c26.37,15.29,54.18,25.85,82.43,31.96l6.36-29.66c-25.22-5.46-50.04-14.89-73.58-28.54C185.13,534.24,177.65,529.34,170.5,524.13z"
	/>
<path class="st3" d="M468.39,525.02c-28.98,20.94-61.91,35.34-96.43,42.59c-0.01,0-0.02,0-0.03,0.01l1.75,8.33l4.5,21.35
	c38.66-8.11,75.54-24.25,107.99-47.7l-12.79-17.68L468.39,525.02z"/>
<path class="st3" d="M100.23,445.69C70.92,394.5,60.07,334,70.61,275.14c0,0,0-0.01,0-0.01l-8.39-1.5l-21.48-3.83
	c-11.81,65.92,0.34,133.67,33.18,191.01l18.92-10.87L100.23,445.69z"/>
<path class="st3" d="M70.62,275.13c5.06-28.27,15.06-56.17,30.31-82.47c15.25-26.3,34.49-48.82,56.51-67.25l-5.46-6.54l-13.99-16.74
	c-24.66,20.64-46.21,45.87-63.29,75.32c-17.08,29.46-28.27,60.7-33.94,92.36l21.48,3.83L70.62,275.13z"/>
<path class="st3" d="M157.43,125.4c0,0,0.01-0.01,0.01-0.01C203.3,87,261.19,66.36,320.19,66.37l0.02-8.52l0.04-21.82
	c-66.08-0.02-130.92,23.09-182.27,66.09l13.99,16.74L157.43,125.4z"/>
<path class="st3" d="M170.48,524.11c-29.4-21.44-53-48.31-70.23-78.39c0-0.01-0.01-0.02-0.01-0.03l-7.38,4.24l-18.92,10.87
	c19.3,33.7,45.74,63.79,78.67,87.8l12.86-17.62L170.48,524.11z"/>
<path class="st3" d="M394.81,77.69c0.01,0,0.02,0.01,0.03,0.01c17.84,5.54,35.35,13.15,52.2,22.92c5.41,3.14,10.65,6.45,15.74,9.92
	l4.81-7.03l12.32-18c-5.71-3.89-11.59-7.6-17.66-11.12c-18.87-10.94-38.47-19.46-58.45-25.67l-6.47,20.84L394.81,77.69z"/>
<path class="st3" d="M462.79,110.54c0.01,0.01,0.02,0.01,0.03,0.02c21.4,14.57,39.92,31.94,55.36,51.33l6.67-5.3l17.09-13.57
	c-17.3-21.72-38.05-41.18-62.02-57.5l-12.32,18L462.79,110.54z"/>
<path class="st3" d="M320.19,66.37c0.01,0,0.02,0,0.03,0c24.94,0.01,50.08,3.7,74.59,11.32l2.53-8.13l6.47-20.84
	c-27.46-8.53-55.62-12.67-83.56-12.68l-0.04,21.82L320.19,66.37z"/>
<path class="st3" d="M572.63,301.08c0,0.01,0,0.01,0,0.02c1.86,24.99,0.02,50.4-5.74,75.37l8.3,1.91l21.26,4.9
	c6.45-27.96,8.51-56.41,6.43-84.4l-21.76,1.59L572.63,301.08z"/>
<path class="st3" d="M518.18,161.88c0.01,0.01,0.01,0.02,0.02,0.03c15.91,19.97,28.53,42.08,37.68,65.46l7.93-3.1l20.32-7.93
	c-10.24-26.2-24.38-50.96-42.2-73.33l-17.09,13.57L518.18,161.88z"/>
<path class="st3" d="M584.14,216.34l-20.32,7.93l-7.93,3.1c0,0.01,0.01,0.02,0.01,0.02c9.2,23.56,14.86,48.4,16.74,73.68l8.49-0.62
	l21.76-1.59C600.78,270.56,594.45,242.73,584.14,216.34z"/>
<path class="st3" d="M539.07,446.76c-18.44,31.79-42.71,58.06-70.66,78.26c0,0-0.01,0.01-0.01,0.01l4.99,6.9l12.79,17.68
	c31.3-22.62,58.48-52.04,79.13-87.63l-18.87-10.94L539.07,446.76z"/>
<path class="st3" d="M566.89,376.46C566.89,376.46,566.89,376.47,566.89,376.46c-5.56,24.09-14.76,47.77-27.81,70.28
	c0,0,0,0.01-0.01,0.01l0,0l7.37,4.27l18.87,10.94c0,0,0.01-0.01,0.01-0.01c14.62-25.21,24.92-51.72,31.14-78.69l-21.26-4.9
	L566.89,376.46z"/>
<path id="svg86" class="st4" d="M127.7,429.94l-10.56,6.07l-16.89,9.71c17.23,30.09,40.85,56.97,70.26,78.41l11.48-15.74l7.18-9.84
	C163.43,479.79,142.78,456.27,127.7,429.94z"/>
<path id="svg85" class="st4" d="M155.15,414.16l-4.22,2.43l-6.76,3.88l-7.32,4.21l-2.82,1.62l-2.41,1.39l-3.92,2.25
	c15.08,26.33,35.74,49.85,61.46,68.61l2.67-3.65l1.64-2.25l1.91-2.62l4.98-6.82l4.59-6.3l2.87-3.93
	C185.77,456.89,168.07,436.73,155.15,414.16z"/>
<path id="svg84" class="st4" d="M182.61,398.38l-9.15,5.26l-5.63,3.24l-4.83,2.77l-7.84,4.51c12.92,22.57,30.62,42.73,52.67,58.82
	l5.33-7.31l3.28-4.5l3.83-5.25l6.22-8.53C208.11,433.99,193.37,417.19,182.61,398.38z"/>
<path id="svg83" class="st4" d="M210.06,382.6l-8.45,4.86l-7.24,4.16l-6.28,3.61l-3.38,1.94l-2.11,1.21
	c10.76,18.81,25.5,35.61,43.87,49.02l1.44-1.97l2.3-3.15l4.26-5.85l4.92-6.75l5.74-7.87C230.45,411.09,218.66,397.65,210.06,382.6z"
	/>
<path id="svg82" class="st4" d="M237.52,366.82l-2.11,1.21l-3.38,1.94l-6.28,3.61l-7.24,4.16l-8.45,4.86
	c8.6,15.05,20.39,28.49,35.07,39.23l5.74-7.87l4.92-6.75l4.26-5.85l2.3-3.15l1.44-1.97C252.79,388.19,243.96,378.11,237.52,366.82z"
	/>
<path id="svg81" class="st4" d="M264.98,351.03l-7.84,4.51l-4.84,2.78l-5.63,3.24l-9.15,5.26c6.44,11.29,15.27,21.38,26.28,29.43
	l6.22-8.53l3.83-5.25l3.28-4.5l5.33-7.31C275.13,365.29,269.26,358.56,264.98,351.03z"/>
<path id="svg80" class="st4" d="M292.43,335.25l-3.92,2.25l-2.41,1.39l-2.82,1.62l-7.32,4.21l-6.76,3.88l-4.22,2.43
	c4.28,7.53,10.15,14.26,17.47,19.64l2.87-3.93l4.59-6.3l4.98-6.82l1.91-2.62l1.64-2.25l2.67-3.65
	C297.47,342.39,294.55,339.02,292.43,335.25z"/>
<path id="svg79" class="st4" d="M302.98,329.19l-10.56,6.07c2.12,3.77,5.04,7.14,8.68,9.84l7.18-9.84l11.45-15.7L302.98,329.19z"/>
<path id="svg78" class="st4" d="M202.73,521.92c-7.23-4.19-14.14-8.72-20.74-13.53l-11.48,15.74c7.15,5.21,14.63,10.11,22.45,14.64
	c23.55,13.66,48.38,23.08,73.62,28.55l4.09-19.05C247.38,543.23,224.46,534.53,202.73,521.92z"/>
<path id="svg77" class="st4" d="M212.5,505.07c-6.63-3.85-12.98-8-19.04-12.42l-1.64,2.25l-2.67,3.65l-7.18,9.84
	c6.6,4.82,13.52,9.34,20.74,13.53c21.73,12.6,44.65,21.3,67.93,26.35l2.55-11.91l0.95-4.42l0.58-2.72
	C253.41,524.59,232.42,516.62,212.5,505.07z"/>
<path id="svg76" class="st4" d="M222.28,488.22c-6.04-3.5-11.81-7.28-17.33-11.31l-4.59,6.3l-4.98,6.82l-1.91,2.62
	c6.06,4.42,12.4,8.57,19.04,12.42c19.92,11.55,40.91,19.52,62.25,24.15l0.68-3.18l1.77-8.26l1.64-7.62
	C259.45,505.96,240.37,498.71,222.28,488.22z"/>
<path id="svg75" class="st4" d="M232.05,471.37c-5.44-3.16-10.65-6.57-15.62-10.19l-3.28,4.5l-5.33,7.31l-2.87,3.93
	c5.51,4.02,11.29,7.8,17.33,11.31c18.1,10.49,37.17,17.74,56.56,21.94l1.02-4.76l1.9-8.85l1.17-5.44
	C265.49,487.33,248.33,480.81,232.05,471.37z"/>
<path id="svg74" class="st4" d="M241.82,454.51c-4.85-2.81-9.48-5.85-13.91-9.08l-1.44,1.97l-6.22,8.53l-3.83,5.25
	c4.97,3.63,10.17,7.04,15.62,10.19c16.28,9.44,33.44,15.96,50.88,19.74l1.36-6.35l2.21-10.32l0.51-2.38
	C271.52,468.69,256.28,462.9,241.82,454.51z"/>
<path id="svg73" class="st4" d="M251.59,437.66c-4.25-2.47-8.32-5.13-12.2-7.97l-4.92,6.75l-4.26,5.85l-2.3,3.15
	c4.43,3.23,9.06,6.27,13.91,9.08c14.46,8.39,29.7,14.18,45.19,17.54l0.82-3.81l1.52-7.08l1.75-8.17
	C277.56,450.06,264.24,444.99,251.59,437.66z"/>
<path id="svg72" class="st4" d="M261.37,420.81c-3.66-2.12-7.15-4.41-10.49-6.85l-5.74,7.87l-5.74,7.87
	c3.88,2.84,7.95,5.5,12.2,7.97c12.64,7.33,25.97,12.4,39.51,15.34l2.04-9.53l2.04-9.53C283.6,431.43,272.19,427.09,261.37,420.81z"
	/>
<path id="svg71" class="st4" d="M271.14,403.96c-3.06-1.78-5.99-3.7-8.78-5.74l-2.3,3.15l-4.26,5.85l-4.92,6.75
	c3.34,2.44,6.83,4.73,10.49,6.85c10.82,6.28,22.23,10.62,33.82,13.14l1.75-8.17l1.52-7.08l0.82-3.81
	C289.63,412.79,280.14,409.18,271.14,403.96z"/>
<path id="svg70" class="st4" d="M280.91,387.11c-2.47-1.43-4.82-2.98-7.07-4.63l-3.83,5.25l-6.22,8.53l-1.44,1.97
	c2.79,2.04,5.72,3.97,8.78,5.74c9,5.22,18.49,8.84,28.14,10.94l0.51-2.38L302,402.2l1.36-6.35
	C295.67,394.16,288.1,391.27,280.91,387.11z"/>
<path id="svg69" class="st4" d="M290.68,370.25c-1.87-1.09-3.66-2.27-5.36-3.52l-2.87,3.93l-5.33,7.31l-3.28,4.5
	c2.25,1.65,4.61,3.2,7.07,4.63c7.19,4.17,14.76,7.05,22.45,8.74l1.17-5.45l1.9-8.84l1.02-4.76
	C301.71,375.52,296.05,373.37,290.68,370.25z"/>
<path id="svg68" class="st4" d="M300.46,353.4c-1.28-0.74-2.49-1.55-3.65-2.41l-1.91,2.62l-4.98,6.82l-4.59,6.3
	c1.71,1.25,3.49,2.43,5.36,3.52c5.37,3.11,11.02,5.27,16.77,6.54l1.64-7.62l1.77-8.25l0.68-3.17
	C307.74,356.89,304.01,355.46,300.46,353.4z"/>
<path id="svg67" class="st4" d="M310.23,336.55c-0.68-0.4-1.33-0.83-1.95-1.29l-7.18,9.84l-2.67,3.65l-1.64,2.25
	c1.16,0.86,2.38,1.67,3.65,2.41c3.55,2.06,7.29,3.49,11.09,4.34l0.58-2.72l0.95-4.42l2.56-11.91
	C313.78,338.26,311.96,337.55,310.23,336.55z"/>
<path id="svg66" class="st4" d="M308.28,335.26c0.62,0.46,1.26,0.9,1.95,1.29c1.73,1,3.55,1.71,5.4,2.14l4.1-19.13L308.28,335.26z"
	/>
<path id="svg65" class="st4" d="M275.43,526.04l-0.68,3.18l-0.58,2.72l-0.95,4.42l-2.55,11.91l-4.09,19.05
	c35.13,7.6,71.04,7.5,105.39,0.29l-4.01-19.07l-2.51-11.92l-0.93-4.43l-0.57-2.72l-0.67-3.18
	C334.64,532.3,304.71,532.38,275.43,526.04z"/>
<path id="svg64" class="st4" d="M284.29,484.76l-1.36,6.35l-1.17,5.44l-1.9,8.85l-1.02,4.76l-1.64,7.62l-1.77,8.26
	c29.28,6.34,59.2,6.26,87.83,0.26l-1.74-8.26l-1.61-7.63l-1-4.77l-1.86-8.85l-1.15-5.45l-1.34-6.36
	C331.66,489.78,307.71,489.84,284.29,484.76z"/>
<path id="svg63" class="st4" d="M293.15,443.48l-2.04,9.53l-1.75,8.17l-1.52,7.08l-0.82,3.81l-0.51,2.38l-2.21,10.32
	c23.42,5.08,47.37,5.02,70.28,0.23l-2.17-10.33l-0.5-2.38l-0.8-3.81l-1.49-7.08l-1.72-8.17l-2.01-9.53
	C328.68,447.27,310.72,447.3,293.15,443.48z"/>
<path id="svg62" class="st4" d="M302,402.2l-2.21,10.32l-0.51,2.38l-0.82,3.81l-1.52,7.08l-1.75,8.17l-2.04,9.53
	c17.57,3.82,35.54,3.79,52.72,0.2l-2.01-9.53l-1.72-8.17l-1.49-7.08l-0.8-3.81l-0.5-2.38l-2.17-10.33
	C325.7,404.75,313.72,404.76,302,402.2z"/>
<path id="svg61" class="st4" d="M310.86,360.91l-1.77,8.25l-1.64,7.62l-1.02,4.76l-1.9,8.84l-1.17,5.45L302,402.2
	c11.72,2.56,23.7,2.55,35.17,0.17l-1.34-6.36l-1.15-5.45l-1.86-8.85l-1-4.77l-1.61-7.63l-1.74-8.26
	C322.73,362.23,316.73,362.22,310.86,360.91z"/>
<path id="svg60" class="st4" d="M315.63,338.69l-2.56,11.91l-0.95,4.42l-0.58,2.72l-0.68,3.17c5.87,1.31,11.87,1.31,17.61,0.14
	l-0.67-3.18l-0.57-2.72l-0.93-4.43l-2.51-11.92l-4.05-19.25L315.63,338.69z"/>
<path id="svg59" class="st4" d="M456.98,509.23l-7.14-9.87c-25.36,18.32-54.19,30.93-84.4,37.27l2.51,11.92l4.01,19.07
	c34.52-7.24,67.46-21.65,96.44-42.59L456.98,509.23z"/>
<path id="svg58" class="st4" d="M447.19,495.7l-1.63-2.26l-1.9-2.63l-4.95-6.84l-4.57-6.32l-2.86-3.95
	c-21.74,15.71-46.46,26.51-72.36,31.94l1,4.77l1.61,7.63l1.74,8.26l0.67,3.18l0.57,2.72l0.93,4.43
	c30.21-6.34,59.04-18.94,84.4-37.27L447.19,495.7z"/>
<path id="svg57" class="st4" d="M425.97,466.38l-3.26-4.51l-3.81-5.26l-6.19-8.55c-18.13,13.09-38.73,22.09-60.32,26.61l2.17,10.33
	l1.34,6.36l1.15,5.45l1.86,8.85c25.9-5.43,50.62-16.23,72.36-31.94L425.97,466.38z"/>
<path id="svg56" class="st4" d="M411.29,446.08l-2.28-3.16l-4.24-5.86l-4.9-6.77l-5.71-7.89c-14.51,10.47-31,17.67-48.28,21.28
	l2.01,9.53l1.72,8.17l1.49,7.08l0.8,3.81l0.5,2.38c21.59-4.52,42.2-13.52,60.32-26.61L411.29,446.08z"/>
<path id="svg55" class="st4" d="M388.44,414.5l-4.9-6.77l-4.24-5.86l-2.28-3.16l-1.43-1.97c-10.89,7.86-23.27,13.25-36.24,15.95
	l0.5,2.38l0.8,3.81l1.49,7.08l1.72,8.17l2.01,9.53c17.28-3.61,33.77-10.81,48.28-21.28L388.44,414.5z"/>
<path id="svg54" class="st4" d="M369.4,388.19l-3.81-5.26l-3.27-4.53l-5.3-7.33c-7.27,5.24-15.53,8.84-24.19,10.63l1.86,8.85
	l1.15,5.45l1.34,6.36l2.17,10.33c12.97-2.7,25.35-8.1,36.24-15.95L369.4,388.19z"/>
<path id="svg53" class="st4" d="M354.16,367.13l-4.57-6.31l-4.95-6.84l-1.9-2.63l-1.63-2.25l-2.65-3.66
	c-3.66,2.62-7.81,4.41-12.16,5.3l0.93,4.43l0.57,2.72l0.67,3.18l1.74,8.26l1.61,7.63l1,4.77c8.66-1.79,16.92-5.39,24.19-10.63
	L354.16,367.13z"/>
<path id="svg52" class="st4" d="M331.31,335.56l-11.58-16l4.05,19.25l2.51,11.92c4.35-0.88,8.5-2.68,12.16-5.3L331.31,335.56z"/>
<path id="svg51" class="st4" d="M522.22,436.98l-10.53-6.11l-3.91-2.27c-15.81,27.25-36.62,49.77-60.58,67.09l2.65,3.66l7.14,9.87
	l11.42,15.79c27.96-20.2,52.23-46.47,70.67-78.26L522.22,436.98z"/>
<path id="svg50" class="st4" d="M505.37,427.21l-2.81-1.63l-7.3-4.23l-6.74-3.91l-4.21-2.44l-7.82-4.54
	c-13.18,22.72-30.52,41.49-50.5,55.92l5.3,7.33l2.86,3.95l4.57,6.32l4.95,6.84l1.9,2.63l1.63,2.26
	c23.97-17.32,44.78-39.84,60.58-67.09L505.37,427.21z"/>
<path id="svg49" class="st4" d="M471.66,407.66l-5.62-3.26l-9.13-5.29l-2.11-1.22l-3.37-1.95l-6.26-3.63
	c-10.55,18.18-24.43,33.2-40.42,44.75l4.24,5.86l2.28,3.16l1.43,1.97l6.19,8.55l3.81,5.26l3.26,4.51
	c19.98-14.43,37.33-33.2,50.5-55.92L471.66,407.66z"/>
<path id="svg48" class="st4" d="M437.96,388.12l-8.43-4.89l-8.43-4.89l-7.22-4.19c-7.91,13.64-18.34,24.92-30.34,33.58l4.9,6.77
	l5.71,7.89l5.71,7.89l4.9,6.77c15.99-11.55,29.88-26.57,40.42-44.75L437.96,388.12z"/>
<path id="svg47" class="st4" d="M407.63,370.53l-3.37-1.95l-2.11-1.22l-9.13-5.29l-5.62-3.26l-4.81-2.79
	c-5.28,9.11-12.26,16.62-20.27,22.39l3.27,4.53l3.81,5.26l6.19,8.55l1.43,1.97l2.28,3.16l4.24,5.86
	c12.01-8.66,22.43-19.93,30.34-33.58L407.63,370.53z"/>
<path id="svg46" class="st4" d="M374.76,351.47l-4.21-2.44l-6.74-3.91l-7.3-4.23l-2.81-1.63l-2.41-1.4
	c-2.65,4.57-6.16,8.34-10.19,11.23l1.63,2.25l1.9,2.63l4.95,6.84l4.57,6.31l2.86,3.95l5.3,7.33c8.02-5.78,14.99-13.29,20.27-22.39
	L374.76,351.47z"/>
<path id="svg45" class="st4" d="M347.38,335.59l-10.53-6.11l-17.11-9.92l11.58,16l7.14,9.86l2.65,3.66
	c4.03-2.89,7.53-6.66,10.19-11.23L347.38,335.59z"/>
<path id="svg44" class="st5" d="M547.9,372.1l-11.87-2.73l-4.41-1.02l-2.71-0.62l-3.16-0.73l-8.23-1.89l-7.6-1.75l-4.75-1.09
	c-4.17,18.07-11.07,35.83-20.86,52.72c0,0,0,0.01-0.01,0.01l4.21,2.44l6.74,3.91l7.3,4.23l2.81,1.63l2.41,1.4l3.91,2.27l10.53,6.11
	l16.85,9.77c0,0,0-0.01,0.01-0.01c13.06-22.51,22.25-46.19,27.81-70.27L547.9,372.1z"/>
<path id="svg43" class="st5" d="M496.36,360.23l-5.43-1.25l-6.33-1.46l-10.29-2.37l-2.37-0.55l-3.8-0.87l-7.05-1.62l-8.14-1.87
	l-9.5-2.19c-2.78,12.05-7.38,23.91-13.91,35.17c0,0,0,0.01-0.01,0.01l8.43,4.89l7.22,4.19l6.26,3.63l3.37,1.95l2.11,1.22l9.13,5.29
	l5.62,3.26l4.81,2.79l7.82,4.54c0,0,0-0.01,0.01-0.01c9.79-16.89,16.69-34.66,20.86-52.72L496.36,360.23z"/>
<path id="svg42" class="st5" d="M433.96,345.86l-8.14-1.87l-7.05-1.62l-3.8-0.87l-2.37-0.55l-10.29-2.37l-6.33-1.46l-5.43-1.25
	l-8.82-2.03c-1.39,6.04-3.69,11.98-6.96,17.62c0,0,0,0.01-0.01,0.01l7.82,4.54l4.81,2.79l5.62,3.26l9.13,5.29l2.11,1.22l3.37,1.95
	l6.26,3.63l7.22,4.19l8.43,4.89c0,0,0-0.01,0.01-0.01c6.53-11.27,11.14-23.12,13.91-35.17L433.96,345.86z"/>
<path id="svg41" class="st5" d="M376.99,332.74l-7.6-1.75l-8.23-1.89l-3.16-0.73l-2.71-0.62l-4.41-1.02L339.01,324l-19.27-4.44
	l17.11,9.92l10.53,6.11l3.91,2.27l2.41,1.4l2.81,1.63l7.3,4.23l6.74,3.91l4.21,2.44c0,0,0-0.01,0.01-0.01
	c3.27-5.65,5.58-11.58,6.96-17.62L376.99,332.74z"/>
<path id="svg40" class="st5" d="M553.2,302.51l-12.15,0.89l-4.51,0.33l-2.78,0.2l-3.24,0.24l-8.42,0.61
	c1.49,20,0.02,40.33-4.59,60.32l8.23,1.89l3.16,0.73l2.71,0.62l4.41,1.02l11.87,2.73l18.99,4.37c5.76-24.97,7.6-50.38,5.74-75.37
	L553.2,302.51z"/>
<path id="svg39" class="st5" d="M514.33,305.35l-4.86,0.35l-9.02,0.66l-5.55,0.41l-6.48,0.47l-10.53,0.77l-2.43,0.18l-3.89,0.28
	c1.12,15.01,0.02,30.26-3.43,45.26l3.8,0.87l2.37,0.55l10.29,2.37l6.33,1.46l5.43,1.25l8.82,2.03l4.75,1.09l7.6,1.75
	c4.61-19.98,6.08-40.31,4.59-60.32L514.33,305.35z"/>
<path id="svg38" class="st5" d="M464.36,309l-8.33,0.61l-9.72,0.71l-9.72,0.71l-8.33,0.61l-7.22,0.53
	c0.75,10.01,0.03,20.19-2.28,30.2l7.05,1.62l8.14,1.87l9.49,2.19l9.5,2.19l8.14,1.87l7.05,1.62c3.46-15,4.55-30.25,3.43-45.26
	L464.36,309z"/>
<path id="svg37" class="st5" d="M417.16,312.45l-2.43,0.18l-10.53,0.77l-6.48,0.47l-5.56,0.41l-9.02,0.66l-4.86,0.35l-7.77,0.57
	c0.39,5.02,0.03,10.12-1.12,15.14l7.6,1.75l4.75,1.09l8.82,2.03l5.43,1.25l6.33,1.46l10.29,2.37l2.37,0.55l3.8,0.87
	c2.3-10.01,3.03-20.19,2.28-30.2L417.16,312.45z"/>
<path id="svg36" class="st5" d="M362.09,316.47l-3.24,0.24l-2.78,0.2l-4.51,0.33l-12.15,0.89l-19.69,1.44l19.27,4.44l11.87,2.73
	l4.41,1.02l2.71,0.62l3.16,0.73l8.23,1.89c1.15-5.02,1.51-10.12,1.12-15.14L362.09,316.47z"/>
<path id="svg35" class="st5" d="M555.89,227.4l-18.15,7.08l-11.34,4.43l-4.21,1.64l-2.59,1.01l-3.03,1.18l-7.87,3.07l-7.26,2.83
	l-4.54,1.77l-8.43,3.29l-5.19,2.02l-6.05,2.36c6.15,15.71,9.93,32.29,11.18,49.15l6.48-0.47l5.55-0.41l9.02-0.66l4.86-0.35
	l7.77-0.57l8.42-0.61l3.24-0.24l2.78-0.2l4.51-0.33l12.15-0.89l19.43-1.42C570.75,275.81,565.09,250.96,555.89,227.4z"/>
<path id="svg34" class="st5" d="M477.23,258.09l-9.83,3.84l-2.27,0.89l-3.63,1.42l-6.74,2.63l-7.78,3.04l-9.08,3.54l-9.08,3.54
	l-7.78,3.04l-6.74,2.63l-3.63,1.42l-2.27,0.89l-9.83,3.84c3.09,7.86,4.99,16.16,5.63,24.6l10.53-0.77l2.43-0.18l3.89-0.28l7.22-0.53
	l8.33-0.61l9.72-0.71l9.72-0.71l8.33-0.61l7.22-0.53l3.89-0.28l2.43-0.18l10.53-0.77C487.16,290.38,483.38,273.81,477.23,258.09z"/>
<path id="svg33" class="st5" d="M398.58,288.79l-6.05,2.36l-5.2,2.03l-8.43,3.29l-4.54,1.77l-7.26,2.83l-7.86,3.07l-3.02,1.18
	l-2.59,1.01l-4.21,1.64l-11.34,4.43l-18.33,7.15l19.69-1.44l12.15-0.89l4.51-0.33l2.78-0.2l3.24-0.24l8.42-0.61l7.77-0.57l4.86-0.35
	l9.02-0.66l5.56-0.41l6.48-0.47C403.57,304.95,401.67,296.65,398.58,288.79z"/>
<path id="svg32" class="st5" d="M518.2,161.91l-15.26,12.12l-9.54,7.58l-3.54,2.81l-2.18,1.73l-2.54,2.02l-6.61,5.25
	c12.74,15.98,22.85,33.67,30.17,52.39l7.87-3.07l3.03-1.18l2.59-1.01l4.21-1.64l11.34-4.43l18.15-7.08
	C546.75,204,534.11,181.89,518.2,161.91z"/>
<path id="svg31" class="st5" d="M478.53,193.42l-6.1,4.85l-3.81,3.03l-7.08,5.63l-4.36,3.46l-5.09,4.04l-8.27,6.57l-1.91,1.52
	l-3.05,2.42c9.56,11.98,17.15,25.25,22.65,39.29l3.63-1.42l2.27-0.89l9.83-3.84l6.05-2.36l5.19-2.02l8.43-3.29l4.54-1.77l7.26-2.83
	C501.38,227.1,491.26,209.4,478.53,193.42z"/>
<path id="svg30" class="st5" d="M438.85,224.94l-5.67,4.5l-6.54,5.19l-7.63,6.06l-7.63,6.06l-6.54,5.19l-5.67,4.5
	c6.38,7.99,11.46,16.84,15.13,26.2l6.74-2.63l7.78-3.04l9.08-3.54l9.08-3.54l7.78-3.04l6.74-2.63
	C456.01,250.19,448.41,236.92,438.85,224.94z"/>
<path id="svg29" class="st5" d="M399.18,256.45l-3.05,2.42l-1.91,1.52l-8.27,6.57l-5.09,4.04l-4.37,3.47l-7.08,5.63l-3.81,3.03
	l-6.1,4.85c3.21,3.99,5.76,8.41,7.61,13.1l7.26-2.83l4.54-1.77l8.43-3.29l5.2-2.03l6.05-2.36l9.83-3.84l2.27-0.89l3.63-1.42
	C410.63,273.29,405.56,264.44,399.18,256.45z"/>
<path id="svg28" class="st5" d="M359.49,287.98l-6.61,5.25l-2.54,2.02l-2.18,1.73l-3.54,2.81l-9.53,7.57l-15.35,12.19l18.33-7.15
	l11.34-4.43l4.21-1.64l2.59-1.01l3.02-1.18l7.86-3.07C365.25,296.39,362.7,291.97,359.49,287.98z"/>
<path id="svg27" class="st5" d="M462.82,110.56l-11.01,16.07l-6.88,10.05l-2.55,3.73l-1.57,2.3l-1.83,2.68l-4.77,6.97l-4.4,6.43
	l-2.75,4.02l-5.11,7.46l-3.14,4.59l-3.67,5.36c14.28,9.71,26.64,21.29,36.95,34.22l5.09-4.04l4.36-3.46l7.08-5.63l3.81-3.03
	l6.1-4.85l6.61-5.25l2.54-2.02l2.18-1.73l3.54-2.81l9.54-7.58l15.26-12.12C502.75,142.51,484.22,125.14,462.82,110.56z"/>
<path id="svg26" class="st5" d="M415.13,180.22l-5.96,8.71l-1.38,2.01l-2.2,3.22l-4.09,5.97l-4.72,6.89l-5.5,8.04l-5.5,8.04
	l-4.72,6.89l-4.09,5.97l-2.2,3.22l-1.38,2.01l-5.96,8.71c7.15,4.85,13.35,10.63,18.51,17.09l8.27-6.57l1.91-1.52l3.05-2.42l5.67-4.5
	l6.54-5.19l7.63-6.06l7.63-6.06l6.54-5.19l5.67-4.5l3.05-2.42l1.91-1.52l8.27-6.57C441.77,201.51,429.41,189.93,415.13,180.22z"/>
<path id="svg25" class="st5" d="M367.44,249.87l-3.67,5.36l-3.15,4.61l-5.11,7.46l-2.75,4.02l-4.4,6.43l-4.77,6.96l-1.83,2.68
	l-1.57,2.3l-2.55,3.73l-6.88,10.04l-11.02,16.1l15.35-12.19l9.53-7.57l3.54-2.81l2.18-1.73l2.54-2.02l6.61-5.25l6.1-4.85l3.81-3.03
	l7.08-5.63l4.37-3.47l5.09-4.04C380.79,260.5,374.59,254.72,367.44,249.87z"/>
<path id="svg24" class="st5" d="M447.05,100.62c-16.85-9.77-34.36-17.38-52.2-22.92l-5.78,18.61l-3.61,11.63l-1.34,4.32l-0.83,2.66
	l-0.96,3.1l-2.5,8.06l-2.31,7.44l-1.44,4.65l-2.68,8.64l-1.65,5.32l-1.93,6.2c11.93,3.7,23.63,8.78,34.89,15.31
	c3.58,2.08,7.06,4.27,10.43,6.57l3.67-5.36l3.14-4.59l5.11-7.46l2.75-4.02l4.4-6.43l4.77-6.97l1.83-2.68l1.57-2.3l2.55-3.73
	l6.88-10.05l11.01-16.07C457.72,107.09,452.47,103.77,447.05,100.62z"/>
<path id="svg23" class="st5" d="M404.7,173.65c-11.26-6.53-22.97-11.62-34.89-15.31l-3.13,10.08l-0.72,2.33l-1.16,3.72l-2.15,6.91
	l-2.48,7.98l-2.89,9.3l-2.89,9.3l-2.48,7.98l-2.15,6.91l-1.16,3.72l-0.72,2.33l-3.13,10.08c6.01,1.85,11.91,4.41,17.59,7.7
	c1.75,1.01,3.44,2.08,5.09,3.2l5.96-8.71l1.38-2.01l2.2-3.22l4.09-5.97l4.72-6.89l5.5-8.04l5.5-8.04l4.72-6.89l4.09-5.97l2.2-3.22
	l1.38-2.01l5.96-8.71C411.76,177.92,408.28,175.73,404.7,173.65z"/>
<path id="svg22" class="st5" d="M362.35,246.67c-5.68-3.29-11.58-5.85-17.59-7.7l-1.93,6.2l-1.66,5.34l-2.68,8.64l-1.44,4.65
	l-2.31,7.44l-2.5,8.06l-0.96,3.1l-0.83,2.66l-1.34,4.32l-3.61,11.63l-5.76,18.55l11.02-16.1l6.88-10.04l2.55-3.73l1.57-2.3
	l1.83-2.68l4.77-6.96l4.4-6.43l2.75-4.02l5.11-7.46l3.15-4.61l3.67-5.36C365.79,248.76,364.1,247.69,362.35,246.67z"/>
<path id="svg21" class="st5" d="M320.22,66.37l-0.04,19.49l-0.02,12.18l-0.01,4.52l-0.01,2.78l-0.01,3.25
	c20.79,0,41.75,3.08,62.19,9.42l0.96-3.1l0.83-2.66l1.34-4.32l3.61-11.63l5.78-18.61C370.33,70.08,345.18,66.38,320.22,66.37z"/>
<path id="svg20" class="st5" d="M320.14,108.59l-0.02,8.44l-0.01,7.79l-0.01,4.87l-0.02,9.05l-0.01,5.57l-0.01,6.5
	c16.63,0,33.4,2.45,49.75,7.52l1.93-6.2l1.65-5.32l2.68-8.64l1.44-4.65l2.31-7.44l2.5-8.06
	C361.89,111.67,340.93,108.59,320.14,108.59z"/>
<path id="svg19" class="st5" d="M320.06,150.81l-0.02,10.56l0,2.44l-0.01,3.9l-0.01,7.24l-0.02,8.35l-0.02,9.74
	c12.47-0.01,25.05,1.82,37.31,5.62l2.89-9.3l2.48-7.98l2.15-6.91l1.16-3.72l0.72-2.33l3.13-10.08
	C353.46,153.27,336.69,150.81,320.06,150.81z"/>
<path id="svg18" class="st5" d="M319.98,193.04l-0.02,9.74l-0.02,8.35l-0.01,7.24l-0.01,3.9l0,2.44l-0.02,10.56
	c8.31-0.02,16.69,1.2,24.87,3.71l3.13-10.08l0.72-2.33l1.16-3.72l2.15-6.91l2.48-7.98l2.89-9.3
	C345.02,194.86,332.45,193.03,319.98,193.04z"/>
<path id="svg17" class="st5" d="M319.9,235.26l-0.01,6.5l-0.01,5.58l-0.02,9.05l-0.01,4.87l-0.01,7.79l-0.02,8.44
	c4.15-0.02,8.34,0.57,12.42,1.82l2.5-8.06l2.31-7.44l1.44-4.65l2.68-8.64l1.66-5.34l1.93-6.2
	C336.59,236.45,328.21,235.24,319.9,235.26z"/>
<path id="svg16" class="st5" d="M319.82,277.49l-0.01,3.25l-0.01,2.78l-0.01,4.52l-0.02,12.18l-0.04,19.34l5.76-18.55l3.61-11.63
	l1.34-4.32l0.83-2.66l0.96-3.1C328.15,278.06,323.97,277.47,319.82,277.49z"/>
<path id="svg15" class="st6" d="M157.44,125.39l12.5,14.95l7.81,9.35l2.9,3.47l1.79,2.14l2.08,2.49l5.42,6.48l5,5.98l3.12,3.74
	l5.8,6.94l3.57,4.27l4.17,4.98c30.55-25.59,69.14-39.36,108.46-39.37l0.01-6.5l0.01-5.57l0.02-9.05l0.01-4.87l0.01-7.79l0.02-8.44
	l0.01-3.25l0.01-2.78l0.01-4.52l0.02-12.18l0.04-19.49C261.21,66.35,203.3,87,157.44,125.39z"/>
<path id="svg14" class="st6" d="M211.6,190.19l6.77,8.1l1.56,1.87l2.5,2.99l4.64,5.55l5.36,6.41l6.25,7.48l6.25,7.48l5.36,6.41
	l4.64,5.55l2.5,2.99l1.56,1.87l6.77,8.1c15.25-12.79,34.51-19.69,54.14-19.72l0.02-10.56l0-2.44l0.01-3.9l0.01-7.24l0.02-8.35
	l0.02-9.74l0.02-9.74l0.02-8.35l0.01-7.24l0.01-3.9l0-2.44l0.02-10.56C280.74,150.82,242.16,164.59,211.6,190.19z"/>
<path id="svg13" class="st6" d="M265.76,254.98l4.17,4.98l3.57,4.27l5.8,6.94l3.12,3.74l5,5.98l5.42,6.48l2.08,2.49l1.79,2.14
	l2.9,3.47l7.81,9.35l12.32,14.74l0.04-19.34l0.02-12.18l0.01-4.52l0.01-2.78l0.01-3.25l0.02-8.44l0.01-7.79l0.01-4.87l0.02-9.05
	l0.01-5.58l0.01-6.5C300.26,235.29,281.01,242.19,265.76,254.98z"/>
<path id="svg12" class="st6" d="M177.75,149.69l-7.81-9.35l-12.5-14.95c-22.02,18.44-41.27,40.96-56.52,67.26
	c-15.26,26.31-25.25,54.21-30.31,82.49l19.19,3.42l11.99,2.14l4.45,0.79c4.34-24.23,12.91-48.14,25.98-70.69
	c13.07-22.54,29.56-41.84,48.43-57.64L177.75,149.69z"/>
<path id="svg11" class="st6" d="M198.06,173.99l-3.12-3.74l-5-5.98l-5.42-6.48l-2.08-2.49l-1.79-2.14
	c-18.87,15.8-35.36,35.1-48.43,57.64c-13.07,22.55-21.64,46.46-25.98,70.69l2.74,0.49l3.2,0.57l8.31,1.48l7.67,1.37l4.8,0.86
	l8.91,1.59c3.62-20.19,10.75-40.11,21.65-58.89c10.89-18.78,24.63-34.86,40.34-48.02L198.06,173.99z"/>
<path id="svg10" class="st6" d="M222.43,203.15l-2.5-2.99l-1.56-1.87l-6.77-8.1l-4.17-4.98l-3.57-4.27
	c-15.72,13.17-29.46,29.25-40.34,48.02c-10.89,18.78-18.03,38.7-21.65,58.89l5.48,0.98l6.39,1.14l10.39,1.85l2.4,0.43l3.84,0.68
	l7.13,1.27c2.9-16.15,8.6-32.08,17.31-47.1c8.71-15.01,19.69-27.87,32.26-38.4L222.43,203.15z"/>
<path id="svg9" class="st6" d="M244.93,230.06l-6.25-7.48l-6.25-7.48l-5.36-6.41c-12.57,10.53-23.55,23.39-32.26,38.4
	c-8.71,15.02-14.42,30.95-17.31,47.1l8.22,1.47l9.59,1.71l9.59,1.71l8.22,1.47c2.17-12.1,6.45-24.04,12.98-35.3
	c6.52-11.25,14.76-20.89,24.17-28.78L244.93,230.06z"/>
<path id="svg8" class="st6" d="M269.92,259.96l-4.17-4.98l-6.77-8.1l-1.56-1.87l-2.5-2.99l-4.64-5.55
	c-9.42,7.89-17.65,17.53-24.17,28.78c-6.53,11.26-10.81,23.2-12.98,35.3l7.13,1.27l3.84,0.68l2.4,0.43l10.39,1.85l6.39,1.14
	l5.48,0.98c1.45-8.06,4.3-16.01,8.65-23.5c4.34-7.49,9.82-13.9,16.09-19.16L269.92,259.96z"/>
<path id="svg7" class="st6" d="M294.92,289.87l-2.08-2.49l-5.42-6.48l-5-5.98l-3.12-3.74l-5.8-6.94
	c-6.27,5.26-11.74,11.67-16.09,19.16c-4.35,7.5-7.2,15.45-8.65,23.5l8.91,1.59l4.8,0.86l7.67,1.37l8.31,1.48l3.2,0.57l2.74,0.49
	c0.73-4.01,2.15-7.97,4.31-11.71c2.16-3.73,4.89-6.92,8-9.54L294.92,289.87z"/>
<path id="svg6" class="st6" d="M307.42,304.82l-7.81-9.35l-2.9-3.47c-3.11,2.62-5.84,5.82-8,9.54c-2.17,3.73-3.59,7.69-4.31,11.71
	l4.45,0.79l11.99,2.14l18.9,3.37L307.42,304.82z"/>
<path id="svg5" class="st6" d="M120.5,284.03l-8.31-1.48l-3.2-0.57l-2.74-0.49l-4.45-0.79l-11.99-2.14l-19.19-3.42
	c-10.54,58.87,0.31,119.38,29.63,170.58l16.89-9.71l10.56-6.07l3.92-2.25l2.41-1.39l2.82-1.62l7.32-4.21
	C120.73,379.51,112.06,331.12,120.5,284.03z"/>
<path id="svg4" class="st6" d="M170.38,292.93l-3.84-0.68l-2.4-0.43l-10.39-1.85l-6.39-1.14l-5.48-0.98l-8.91-1.59l-4.8-0.86
	l-7.67-1.37c-8.44,47.09,0.23,95.48,23.68,136.44l6.76-3.88l4.22-2.43l7.84-4.51l4.83-2.77l5.63-3.24l9.15-5.26l2.11-1.21l3.38-1.94
	C170.54,364.51,164.05,328.23,170.38,292.93z"/>
<path id="svg3" class="st6" d="M220.26,301.82l-7.13-1.27l-8.22-1.47l-9.59-1.71l-9.59-1.71l-8.22-1.47l-7.13-1.27
	c-6.33,35.3,0.16,71.58,17.72,102.3l6.28-3.61l7.24-4.16l8.45-4.86l8.45-4.86l7.24-4.16l6.28-3.61
	C220.34,349.51,216.03,325.34,220.26,301.82z"/>
<path id="svg2" class="st6" d="M270.14,310.72l-7.67-1.37l-4.8-0.86l-8.91-1.59l-5.48-0.98l-6.39-1.14l-10.39-1.85l-2.4-0.43
	l-3.84-0.68c-4.22,23.51,0.09,47.68,11.77,68.15l3.38-1.94l2.11-1.21l9.15-5.26l5.63-3.24l4.84-2.78l7.84-4.51l4.22-2.43l6.76-3.88
	C270.16,334.5,268.02,322.44,270.14,310.72z"/>
<path id="svg1" class="st6" d="M300.84,316.19l-11.99-2.14l-4.45-0.79l-2.74-0.49l-3.2-0.57l-8.31-1.48
	c-2.12,11.73,0.02,23.78,5.82,34l7.32-4.21l2.82-1.62l2.41-1.39l3.92-2.25l10.56-6.07l16.75-9.63L300.84,316.19z"/>
<g>
	<path class="st7" d="M94.57,448.94c-21.94-38.09-34.48-82.27-34.48-129.39c0-15.56,1.37-30.79,3.99-45.6"/>
	<path class="st8" d="M58.11,378.81l-0.22-1l7.92-3.73l0.27,1.19l-1.71,0.75l0.36,1.63l1.87-0.05l0.27,1.19L58.11,378.81z
		 M60.4,377.77l0.01,0.02l3.15-0.09l-0.27-1.2L60.4,377.77z"/>
	<path class="st8" d="M58.44,374.92l0.29,1.39l-1.13,0.24l-0.83-3.97l1.13-0.24l0.29,1.39l7.24-1.51l0.25,1.2L58.44,374.92z"/>
	<path class="st8" d="M57.63,370.94l0.27,1.39l-1.13,0.22L56,368.56l1.13-0.22l0.27,1.39l7.26-1.4l0.23,1.2L57.63,370.94z"/>
	<path class="st8" d="M55.89,367.91l-0.22-1.21l8.41-1.51l0.22,1.2L55.89,367.91z"/>
	<path class="st8" d="M63.49,361.68l0.18,1.07l-8.15,3.11l-0.21-1.28l5.73-1.93l0-0.02l-6.04,0l-0.21-1.28L63.49,361.68z"/>
	<path class="st8" d="M54.65,360.49l-0.18-1.21l8.45-1.27l0.18,1.21L54.65,360.49z"/>
	<path class="st8" d="M55.31,357.08l0.19,1.4l-1.14,0.16l-0.56-4.02l1.14-0.16l0.19,1.4l7.32-1.01l0.17,1.21L55.31,357.08z"/>
	<path class="st8" d="M53.1,352.04l0.1,0.79l-1.49,1.78l-0.16-1.29L53.1,352.04z M53.64,353.28l-0.12-1.01l8.25-2.94l0.15,1.21
		l-1.78,0.58l0.2,1.66l1.87,0.13l0.15,1.21L53.64,353.28z M56.02,352.47l0,0.02l3.15,0.22l-0.15-1.21L56.02,352.47z"/>
</g>
<g>
	<path class="st7" d="M166.68,529.32c-29.29-21.41-53.92-48.8-72.11-80.38"/>
	<path class="st8" d="M142.5,520.85l-1.37-1.22c-0.25-0.22-0.44-0.45-0.57-0.69c-0.13-0.24-0.2-0.51-0.21-0.81s0.06-0.6,0.2-0.87
		c0.14-0.28,0.38-0.61,0.72-0.99c0.25-0.28,0.48-0.51,0.69-0.68c0.21-0.17,0.45-0.29,0.71-0.37c0.31-0.1,0.62-0.11,0.94-0.04
		c0.31,0.07,0.64,0.26,0.98,0.56l0.46,0.42l2.22-2.49l0.91,0.82L142.5,520.85z M144.29,517.01l-0.44-0.39
		c-0.18-0.17-0.35-0.27-0.5-0.3s-0.29-0.03-0.42,0.02c-0.13,0.05-0.26,0.14-0.38,0.26c-0.13,0.12-0.26,0.26-0.41,0.43
		c-0.13,0.15-0.25,0.29-0.37,0.44s-0.19,0.28-0.23,0.42s-0.04,0.28,0,0.42c0.04,0.14,0.16,0.29,0.33,0.45l0.47,0.42L144.29,517.01z"
		/>
	<path class="st8" d="M138.78,517.5l-0.9-0.83l5.78-6.29l0.9,0.83L138.78,517.5z"/>
	<path class="st8" d="M135.95,514.88l-0.74-0.7l4.48-7.52l0.89,0.84l-1,1.58l1.21,1.15l1.52-1.09l0.89,0.84L135.95,514.88z
		 M137.27,512.74l0.02,0.02l2.56-1.84l-0.89-0.84L137.27,512.74z"/>
	<path class="st8" d="M133.32,512.38l-0.84-0.82l2.29-4.97l-0.02-0.02l-3.61,3.67l-0.87-0.86l5.99-6.1l0.82,0.81l-2.26,4.98
		l0.02,0.02l3.6-3.66l0.87,0.86L133.32,512.38z"/>
	<path class="st8" d="M129.41,508.51l-0.86-0.87l6.08-6.01l0.86,0.87L129.41,508.51z"/>
	<path class="st8" d="M127.66,506.74l-2.53-2.63l0.83-0.8l1.68,1.75l1.87-1.8l-1.46-1.52l0.83-0.8l1.46,1.52l2.63-2.53l0.85,0.88
		L127.66,506.74z"/>
	<path class="st8" d="M130.83,499.47l-0.84-0.89l0.89-0.84l0.84,0.89L130.83,499.47z"/>
	<path class="st8" d="M121.4,500.09l-0.69-0.76l5.05-7.15l0.82,0.91l-1.12,1.5l1.12,1.24l1.6-0.97l0.82,0.91L121.4,500.09z
		 M122.88,498.05l0.02,0.02l2.7-1.64l-0.82-0.91L122.88,498.05z"/>
	<path class="st8" d="M118.98,497.41l-0.77-0.89l2.66-4.78l-0.02-0.02l-3.88,3.38l-0.8-0.92l6.44-5.62l0.76,0.87l-2.64,4.79
		l0.02,0.02l3.87-3.38l0.8,0.92L118.98,497.41z"/>
	<path class="st8" d="M115.41,493.3l-0.75-0.9l2.76-4.72l-0.02-0.02l-3.95,3.3l-0.79-0.94l6.55-5.49l0.74,0.88l-2.74,4.73l0.02,0.02
		l3.94-3.3l0.79,0.94L115.41,493.3z"/>
	<path class="st8" d="M114.57,481.84c0.22-0.18,0.45-0.3,0.71-0.37s0.5-0.09,0.76-0.06c0.25,0.03,0.5,0.1,0.73,0.22
		c0.23,0.12,0.43,0.29,0.6,0.5s0.29,0.44,0.36,0.7c0.07,0.25,0.09,0.5,0.06,0.76c-0.03,0.25-0.1,0.5-0.22,0.73
		c-0.12,0.23-0.29,0.43-0.51,0.61l-5.16,4.15l-0.77-0.95l5.07-4.08c0.24-0.19,0.37-0.39,0.39-0.59c0.02-0.2-0.04-0.39-0.17-0.56
		c-0.13-0.17-0.3-0.26-0.51-0.29c-0.2-0.02-0.42,0.06-0.66,0.25l-5.07,4.08l-0.77-0.95L114.57,481.84z"/>
	<path class="st8" d="M107.87,484.02l-0.62-0.81l5.59-6.74l0.75,0.97l-1.23,1.41l1.02,1.32l1.67-0.84l0.75,0.97L107.87,484.02z
		 M109.5,482.1l0.01,0.02l2.82-1.42l-0.75-0.97L109.5,482.1z"/>
	<path class="st8" d="M105.65,481.13l-0.73-0.98l5.87-4.38l-1.45-1.94l0.98-0.73l2.18,2.92L105.65,481.13z"/>
	<path class="st8" d="M102.94,477.47l-2.13-2.96l0.93-0.67l1.42,1.97l2.04-1.47l-1.23-1.71l0.93-0.67l1.23,1.71l2.04-1.47
		l-1.42-1.97l0.99-0.72l2.13,2.96L102.94,477.47z"/>
</g>
<g>
	<path class="st7" d="M265.22,573.47c-36.22-7.74-69.64-23.03-98.54-44.15"/>
	<path class="st8" d="M228.3,571.76l-0.96-0.35l1.14-8.68l1.15,0.42l-0.29,1.85l1.57,0.57l0.97-1.6l1.15,0.42L228.3,571.76z
		 M228.66,569.27l0.02,0.01l1.62-2.7l-1.15-0.42L228.66,569.27z"/>
	<path class="st8" d="M225.19,569.38l1.32,0.5l-0.41,1.08l-3.79-1.45l0.41-1.08l1.32,0.5l2.63-6.91l1.14,0.44L225.19,569.38z"/>
	<path class="st8" d="M221.39,567.9l1.32,0.52l-0.43,1.07l-3.77-1.5l0.43-1.07l1.32,0.52l2.74-6.87l1.14,0.45L221.39,567.9z"/>
	<path class="st8" d="M217.91,567.74l-1.13-0.47l3.26-7.9l1.13,0.47L217.91,567.74z"/>
	<path class="st8" d="M216.76,557.99l0.99,0.43l-1.78,8.54l-1.19-0.51l1.46-5.86l-0.02-0.01l-3.26,5.09l-1.19-0.51L216.76,557.99z"
		/>
	<path class="st8" d="M211,564.79l-1.12-0.5l3.48-7.8l1.12,0.5L211,564.79z"/>
	<path class="st8" d="M208.49,562.39l1.29,0.59l-0.48,1.05l-3.68-1.7l0.48-1.05l1.29,0.59l3.1-6.71l1.11,0.51L208.49,562.39z"/>
	<path class="st8" d="M203.06,561.53l0.71,0.34l0.7,2.21l-1.17-0.56L203.06,561.53z M204.4,561.75l-0.92-0.44l1.97-8.53l1.1,0.53
		l-0.47,1.81l1.5,0.72l1.12-1.5l1.1,0.53L204.4,561.75z M205,559.31l0.02,0.01l1.88-2.53l-1.1-0.53L205,559.31z"/>
	<path class="st8" d="M198.64,551.46c0.12-0.23,0.28-0.44,0.48-0.6c0.2-0.17,0.42-0.29,0.66-0.37c0.24-0.08,0.49-0.11,0.75-0.1
		c0.26,0.01,0.51,0.08,0.75,0.2c0.21,0.11,0.4,0.24,0.59,0.41c0.18,0.17,0.33,0.36,0.43,0.59s0.15,0.48,0.14,0.77
		c-0.01,0.28-0.1,0.6-0.28,0.95l-2.15,4.18c-0.13,0.25-0.29,0.46-0.48,0.63c-0.2,0.17-0.41,0.29-0.65,0.37
		c-0.24,0.08-0.49,0.1-0.75,0.08s-0.53-0.1-0.79-0.24c-0.25-0.13-0.46-0.29-0.63-0.49s-0.29-0.42-0.36-0.66
		c-0.07-0.24-0.1-0.5-0.07-0.77c0.03-0.27,0.11-0.54,0.24-0.8l0.22-0.43l1.09,0.56l-0.19,0.36c-0.11,0.21-0.14,0.43-0.1,0.65
		c0.04,0.22,0.16,0.38,0.37,0.49c0.27,0.14,0.49,0.15,0.67,0.03c0.17-0.12,0.33-0.31,0.46-0.57l2-3.89
		c0.11-0.22,0.16-0.43,0.14-0.63c-0.02-0.2-0.15-0.36-0.4-0.49c-0.07-0.04-0.15-0.06-0.25-0.08c-0.09-0.02-0.19-0.01-0.29,0.01
		c-0.1,0.02-0.19,0.07-0.29,0.15c-0.09,0.08-0.18,0.19-0.26,0.34l-0.19,0.37l-1.09-0.56L198.64,551.46z"/>
	<path class="st8" d="M194.61,556.84l-1.62-0.87c-0.3-0.16-0.54-0.34-0.72-0.54c-0.18-0.2-0.31-0.45-0.39-0.74s-0.08-0.59-0.01-0.9
		c0.07-0.3,0.23-0.68,0.47-1.13c0.18-0.33,0.35-0.6,0.52-0.82c0.17-0.21,0.37-0.39,0.6-0.53c0.28-0.17,0.58-0.25,0.9-0.26
		c0.32,0,0.68,0.1,1.08,0.32l0.55,0.3l1.58-2.94l1.08,0.58L194.61,556.84z M195.45,552.69l-0.52-0.28
		c-0.22-0.12-0.41-0.18-0.56-0.18c-0.15,0-0.29,0.04-0.4,0.12s-0.22,0.19-0.31,0.34s-0.19,0.32-0.29,0.51
		c-0.09,0.18-0.18,0.35-0.25,0.51c-0.07,0.16-0.12,0.32-0.13,0.46c-0.01,0.14,0.02,0.28,0.1,0.41c0.08,0.13,0.22,0.25,0.43,0.36
		l0.56,0.3L195.45,552.69z"/>
</g>
<g>
	<path class="st7" d="M373.22,573.69c-17.26,3.61-35.15,5.51-53.48,5.51c-18.7,0-36.94-1.98-54.52-5.73"/>
	<path class="st8" d="M335.95,584.81l1.22-0.08l0.02,0.28c0.02,0.28,0.1,0.52,0.25,0.71s0.37,0.28,0.69,0.26
		c0.17-0.01,0.3-0.05,0.41-0.12s0.18-0.16,0.24-0.26c0.05-0.1,0.09-0.22,0.1-0.36c0.02-0.13,0.02-0.27,0.01-0.42
		c-0.01-0.17-0.03-0.31-0.05-0.42c-0.02-0.12-0.06-0.21-0.11-0.29c-0.05-0.08-0.13-0.15-0.22-0.21c-0.1-0.06-0.23-0.11-0.39-0.17
		l-0.96-0.31c-0.28-0.08-0.51-0.19-0.68-0.32c-0.18-0.13-0.32-0.28-0.42-0.46c-0.1-0.18-0.18-0.39-0.23-0.63
		c-0.05-0.24-0.08-0.52-0.1-0.83c-0.02-0.36-0.01-0.7,0.04-1.01c0.05-0.31,0.15-0.58,0.3-0.81c0.15-0.23,0.35-0.42,0.62-0.57
		c0.26-0.15,0.59-0.23,0.98-0.26c0.29-0.02,0.57,0.01,0.84,0.1c0.26,0.09,0.49,0.21,0.69,0.38c0.2,0.17,0.36,0.37,0.48,0.61
		c0.12,0.24,0.2,0.5,0.22,0.79l0.03,0.46l-1.22,0.08l-0.03-0.38c-0.01-0.22-0.09-0.42-0.24-0.59c-0.14-0.17-0.37-0.25-0.68-0.22
		c-0.21,0.01-0.37,0.06-0.48,0.12c-0.11,0.07-0.19,0.16-0.25,0.27c-0.05,0.11-0.08,0.25-0.09,0.41c0,0.16,0,0.34,0.01,0.53
		c0.01,0.22,0.04,0.41,0.06,0.55c0.03,0.14,0.07,0.26,0.12,0.34c0.06,0.08,0.13,0.15,0.23,0.2s0.22,0.1,0.38,0.16l0.9,0.3
		c0.54,0.18,0.91,0.44,1.12,0.78s0.32,0.78,0.36,1.32c0.02,0.32,0,0.63-0.07,0.92c-0.07,0.29-0.18,0.55-0.34,0.77
		c-0.16,0.22-0.36,0.4-0.62,0.54s-0.56,0.22-0.91,0.25c-0.3,0.02-0.58-0.02-0.84-0.11c-0.26-0.09-0.48-0.23-0.68-0.4
		c-0.19-0.17-0.34-0.37-0.45-0.59c-0.11-0.22-0.18-0.45-0.19-0.69L335.95,584.81z"/>
	<path class="st8" d="M335.1,587.32l-1.83,0.09c-0.34,0.02-0.63-0.01-0.89-0.09s-0.5-0.22-0.72-0.43c-0.22-0.21-0.38-0.47-0.47-0.76
		c-0.09-0.29-0.15-0.7-0.18-1.21c-0.02-0.38-0.01-0.7,0.02-0.97c0.03-0.27,0.11-0.52,0.25-0.76c0.15-0.29,0.37-0.52,0.64-0.69
		s0.64-0.27,1.09-0.29l0.62-0.03l-0.17-3.33l1.22-0.06L335.1,587.32z M333.68,583.33l-0.59,0.03c-0.25,0.01-0.44,0.06-0.57,0.14
		c-0.13,0.08-0.23,0.18-0.29,0.31s-0.09,0.28-0.09,0.46c0,0.18,0,0.37,0.01,0.59c0.01,0.2,0.02,0.39,0.05,0.57
		c0.02,0.18,0.06,0.33,0.13,0.46s0.17,0.23,0.3,0.3c0.13,0.07,0.32,0.1,0.56,0.09l0.63-0.03L333.68,583.33z"/>
	<path class="st8" d="M330.11,587.56l-3.65,0.12l-0.04-1.15l2.42-0.08l-0.08-2.51l-2.11,0.07l-0.04-1.15l2.11-0.07l-0.08-2.51
		l-2.42,0.08l-0.04-1.22l3.65-0.12L330.11,587.56z"/>
	<path class="st8" d="M321.58,581.12c0-0.26,0.04-0.52,0.14-0.76c0.1-0.24,0.23-0.45,0.41-0.64c0.17-0.18,0.38-0.33,0.61-0.44
		s0.49-0.17,0.76-0.17c0.23,0,0.47,0.03,0.71,0.08c0.24,0.06,0.46,0.17,0.65,0.32c0.19,0.15,0.36,0.36,0.48,0.61
		c0.13,0.25,0.19,0.58,0.2,0.97l0.07,4.7c0,0.28-0.04,0.54-0.13,0.78c-0.09,0.24-0.23,0.45-0.4,0.63c-0.17,0.18-0.38,0.32-0.62,0.42
		c-0.24,0.1-0.51,0.16-0.81,0.16c-0.28,0-0.54-0.04-0.78-0.14c-0.24-0.1-0.45-0.23-0.63-0.41s-0.32-0.39-0.42-0.64
		c-0.1-0.25-0.16-0.52-0.16-0.82l-0.01-0.48l1.22-0.02l0.01,0.41c0,0.24,0.07,0.45,0.21,0.62s0.32,0.26,0.56,0.26
		c0.3,0,0.5-0.1,0.6-0.29c0.1-0.19,0.14-0.43,0.14-0.72l-0.06-4.37c0-0.25-0.06-0.46-0.17-0.62c-0.11-0.17-0.31-0.25-0.59-0.24
		c-0.08,0-0.17,0.02-0.26,0.05c-0.09,0.03-0.17,0.08-0.25,0.14s-0.14,0.15-0.18,0.27c-0.05,0.11-0.07,0.25-0.07,0.42l0.01,0.42
		l-1.22,0.02L321.58,581.12z"/>
	<path class="st8" d="M320.55,587.75l-1.22,0l-0.02-8.54l1.22,0L320.55,587.75z"/>
	<path class="st8" d="M316.69,587.73l-1.02-0.01l-1.8-8.57l1.22,0.02l0.34,1.84l1.67,0.02l0.38-1.83l1.22,0.02L316.69,587.73z
		 M316.21,585.27h0.02l0.64-3.09l-1.22-0.02L316.21,585.27z"/>
	<path class="st8" d="M313.04,587.67l-1.22-0.04l0.22-7.32l-2.42-0.07l0.04-1.22l3.65,0.11L313.04,587.67z"/>
	<path class="st8" d="M308.47,587.52l-1.22-0.05l0.37-8.54l1.22,0.05L308.47,587.52z"/>
	<path class="st8" d="M305.24,586.21l1.41,0.08l-0.06,1.15l-4.05-0.23l0.06-1.15l1.41,0.08l0.41-7.38l1.22,0.07L305.24,586.21z"/>
	<path class="st8" d="M301.23,587.12l-1.02-0.07l-1.31-8.66l1.22,0.09l0.23,1.86l1.66,0.12l0.49-1.81l1.22,0.08L301.23,587.12z
		 M299.91,587.41l0.79,0.06l1.46,1.8l-1.29-0.09L299.91,587.41z M300.89,584.63l0.02,0l0.81-3.05l-1.22-0.09L300.89,584.63z"/>
</g>
<g>
	<path class="st7" d="M471.93,529.95c-28.97,21-62.45,36.15-98.71,43.75"/>
	<path class="st8" d="M449.63,552.93l1.24-0.69l0.56,1.01l-3.55,1.97l-0.56-1.01l1.24-0.69l-3.59-6.46l1.07-0.59L449.63,552.93z"/>
	<path class="st8" d="M446.69,555.86l-0.9,0.48l-5.72-6.63l1.08-0.58l1.18,1.45l1.47-0.79l-0.55-1.79l1.08-0.58L446.69,555.86z
		 M445.07,553.93l0.02-0.01l-0.93-3.01l-1.08,0.58L445.07,553.93z"/>
	<path class="st8" d="M443.48,557.56l-1.63,0.84c-0.3,0.15-0.58,0.25-0.85,0.29c-0.27,0.04-0.55,0-0.83-0.1
		c-0.29-0.11-0.54-0.27-0.74-0.5c-0.21-0.23-0.43-0.57-0.66-1.03c-0.17-0.33-0.3-0.63-0.38-0.89c-0.08-0.26-0.11-0.52-0.09-0.8
		c0.02-0.33,0.12-0.62,0.3-0.89c0.18-0.27,0.47-0.5,0.88-0.71l0.56-0.28l-1.52-2.97l1.09-0.56L443.48,557.56z M440.54,554.51
		l-0.52,0.27c-0.22,0.11-0.38,0.23-0.46,0.36c-0.09,0.13-0.13,0.26-0.13,0.4c0,0.14,0.03,0.29,0.1,0.45s0.15,0.34,0.25,0.53
		c0.09,0.18,0.18,0.34,0.28,0.5c0.09,0.16,0.2,0.28,0.31,0.37c0.11,0.09,0.25,0.14,0.39,0.15s0.33-0.04,0.54-0.15l0.57-0.29
		L440.54,554.51z"/>
	<path class="st8" d="M439.01,559.84l-1.65,0.81c-0.3,0.15-0.59,0.24-0.86,0.27c-0.27,0.03-0.55,0-0.83-0.12
		c-0.29-0.11-0.53-0.28-0.73-0.52c-0.2-0.23-0.42-0.58-0.64-1.04c-0.17-0.34-0.29-0.64-0.37-0.9c-0.08-0.26-0.1-0.53-0.08-0.8
		c0.03-0.33,0.13-0.62,0.32-0.88c0.18-0.26,0.48-0.5,0.89-0.7l0.56-0.27l-1.46-3l1.1-0.54L439.01,559.84z M436.13,556.73l-0.53,0.26
		c-0.22,0.11-0.38,0.23-0.47,0.35s-0.14,0.26-0.14,0.4c0,0.14,0.03,0.29,0.1,0.46c0.07,0.16,0.15,0.34,0.24,0.54
		c0.09,0.18,0.18,0.35,0.27,0.5s0.19,0.28,0.3,0.37c0.11,0.09,0.24,0.14,0.39,0.16c0.15,0.01,0.33-0.03,0.55-0.14l0.57-0.28
		L436.13,556.73z"/>
	<path class="st8" d="M434.5,562.03l-3.31,1.54l-0.49-1.04l2.2-1.02l-1.06-2.27l-1.91,0.89l-0.49-1.04l1.91-0.89l-1.06-2.27
		l-2.2,1.03l-0.52-1.11l3.31-1.54L434.5,562.03z"/>
	<path class="st8" d="M428.28,564.89l-1.08,0.46l-3.23-3.53l-0.02,0.01l0.36,4.77l-1.09,0.47l-3.38-7.85l1.12-0.48l2.06,4.77
		l0.02-0.01l-0.34-3.85l0.56-0.24l2.56,2.9l0.02-0.01l-2.06-4.77l1.12-0.48L428.28,564.89z"/>
	<path class="st8" d="M422.01,567.56l-3.38,1.37l-0.43-1.07l2.25-0.91l-0.94-2.32l-1.96,0.79l-0.43-1.07l1.96-0.79l-0.94-2.32
		l-2.25,0.91l-0.46-1.13l3.38-1.37L422.01,567.56z"/>
	<path class="st8" d="M417.78,569.27l-1.84,0.71c-1.34,0.52-2.32,0-2.92-1.57c-0.18-0.46-0.26-0.89-0.24-1.28
		c0.02-0.39,0.17-0.75,0.46-1.1l-2.63-3.17l1.21-0.46l2.37,3l0.68-0.26l-1.31-3.41l1.14-0.44L417.78,569.27z M415.27,566.14
		l-0.65,0.25c-0.2,0.08-0.35,0.17-0.45,0.27c-0.1,0.1-0.16,0.22-0.18,0.35s-0.02,0.27,0.02,0.44c0.04,0.16,0.09,0.34,0.17,0.54
		c0.08,0.2,0.16,0.37,0.24,0.52s0.18,0.26,0.29,0.34s0.24,0.12,0.39,0.13c0.15,0,0.33-0.04,0.53-0.12l0.59-0.23L415.27,566.14z"/>
	<path class="st8" d="M412.87,571.14l-1.85,0.67c-1.35,0.49-2.32-0.05-2.88-1.62c-0.17-0.47-0.24-0.89-0.21-1.28
		s0.19-0.75,0.48-1.09l-2.57-3.22l1.22-0.44l2.31,3.04l0.69-0.25l-1.24-3.43l1.15-0.42L412.87,571.14z M410.42,567.97l-0.65,0.24
		c-0.2,0.07-0.35,0.16-0.45,0.26c-0.1,0.1-0.16,0.21-0.19,0.34c-0.03,0.13-0.02,0.27,0.01,0.44c0.03,0.16,0.09,0.35,0.16,0.55
		s0.15,0.38,0.23,0.52c0.08,0.15,0.17,0.26,0.28,0.34s0.24,0.13,0.39,0.13c0.15,0.01,0.33-0.03,0.54-0.1l0.6-0.22L410.42,567.97z"/>
	<path class="st8" d="M405.49,568.53l3.18,4.12l-1.23,0.42l-2.03-2.9l-0.02,0.01l0.17,3.53l-1.23,0.42l-0.01-5.21l-1.17-3.42
		l1.16-0.4L405.49,568.53z"/>
</g>
<g>
	<path class="st7" d="M544.38,449.84c-18.31,31.51-43.06,58.81-72.45,80.11"/>
	<path class="st8" d="M539.36,473.54l-0.69,0.96l-4.59-1.36l-0.01,0.02l2.77,3.91l-0.69,0.96l-6.94-4.98l0.71-0.99l4.22,3.03
		l0.01-0.02l-2.28-3.13l0.36-0.5l3.68,1.17l0.01-0.02l-4.22-3.03l0.71-0.99L539.36,473.54z"/>
	<path class="st8" d="M535.36,479.06l-0.73,0.98l-6.85-5.1l0.73-0.98L535.36,479.06z"/>
	<path class="st8" d="M529.52,482.7l0.75-0.97l0.22,0.17c0.22,0.17,0.45,0.27,0.7,0.28c0.24,0.02,0.46-0.09,0.65-0.34
		c0.1-0.13,0.16-0.26,0.18-0.39c0.01-0.12,0-0.24-0.04-0.35s-0.11-0.21-0.2-0.31c-0.09-0.1-0.19-0.19-0.31-0.28
		c-0.13-0.1-0.25-0.18-0.35-0.25c-0.1-0.06-0.2-0.1-0.29-0.11c-0.1-0.01-0.2,0-0.3,0.03c-0.11,0.03-0.23,0.09-0.38,0.18l-0.86,0.52
		c-0.25,0.15-0.48,0.25-0.69,0.3c-0.21,0.05-0.42,0.05-0.63,0.01c-0.21-0.04-0.41-0.12-0.63-0.25c-0.21-0.12-0.44-0.28-0.69-0.47
		c-0.29-0.22-0.53-0.45-0.73-0.7c-0.2-0.24-0.34-0.5-0.41-0.76c-0.08-0.26-0.08-0.54-0.02-0.84c0.06-0.29,0.21-0.6,0.45-0.91
		c0.18-0.23,0.39-0.42,0.63-0.56c0.24-0.14,0.49-0.23,0.74-0.27c0.25-0.04,0.51-0.02,0.78,0.04c0.26,0.07,0.51,0.19,0.74,0.36
		l0.36,0.28l-0.74,0.97l-0.3-0.23c-0.18-0.14-0.38-0.21-0.6-0.21c-0.22,0-0.43,0.12-0.62,0.36c-0.13,0.17-0.2,0.31-0.22,0.44
		c-0.02,0.13-0.01,0.25,0.04,0.36c0.05,0.11,0.13,0.23,0.25,0.33c0.12,0.11,0.25,0.22,0.41,0.34c0.18,0.14,0.33,0.24,0.45,0.32
		s0.24,0.12,0.34,0.13c0.1,0.01,0.2,0,0.3-0.04c0.1-0.04,0.22-0.1,0.37-0.18l0.82-0.48c0.49-0.29,0.93-0.4,1.33-0.32
		c0.39,0.07,0.8,0.27,1.23,0.6c0.25,0.19,0.47,0.41,0.64,0.66s0.29,0.5,0.35,0.76s0.06,0.54,0,0.82s-0.2,0.57-0.41,0.85
		c-0.18,0.24-0.4,0.43-0.64,0.56s-0.49,0.21-0.75,0.24c-0.25,0.03-0.5,0.02-0.74-0.05s-0.45-0.17-0.64-0.31L529.52,482.7z"/>
	<path class="st8" d="M526.43,486.59l0.76-0.96l0.22,0.17c0.22,0.17,0.45,0.27,0.69,0.3c0.24,0.02,0.46-0.09,0.65-0.33
		c0.1-0.13,0.17-0.26,0.18-0.38c0.02-0.12,0.01-0.24-0.04-0.35s-0.11-0.21-0.19-0.32c-0.09-0.1-0.19-0.2-0.3-0.29
		c-0.13-0.1-0.25-0.19-0.34-0.25c-0.1-0.06-0.2-0.1-0.29-0.12c-0.1-0.01-0.2-0.01-0.3,0.03c-0.11,0.03-0.24,0.09-0.39,0.18
		l-0.87,0.5c-0.25,0.15-0.48,0.24-0.7,0.29c-0.21,0.04-0.42,0.04-0.63,0s-0.41-0.13-0.62-0.26s-0.44-0.29-0.68-0.48
		c-0.28-0.22-0.52-0.46-0.72-0.71c-0.2-0.25-0.33-0.5-0.4-0.77c-0.07-0.27-0.07-0.54,0-0.84c0.07-0.29,0.23-0.59,0.47-0.9
		c0.18-0.23,0.4-0.42,0.64-0.55c0.24-0.14,0.49-0.22,0.75-0.25c0.25-0.03,0.51-0.01,0.77,0.06c0.26,0.07,0.5,0.19,0.73,0.37
		l0.36,0.28l-0.76,0.96l-0.3-0.24c-0.18-0.14-0.38-0.21-0.6-0.22c-0.22-0.01-0.43,0.11-0.63,0.35c-0.13,0.16-0.21,0.31-0.23,0.44
		s-0.01,0.25,0.03,0.36c0.05,0.11,0.13,0.23,0.24,0.34s0.25,0.23,0.4,0.35c0.18,0.14,0.32,0.25,0.45,0.33s0.23,0.12,0.34,0.14
		c0.1,0.01,0.2,0,0.3-0.03c0.1-0.04,0.22-0.09,0.37-0.17l0.83-0.46c0.5-0.28,0.94-0.38,1.33-0.3s0.8,0.29,1.21,0.62
		c0.25,0.2,0.46,0.42,0.63,0.67c0.17,0.25,0.28,0.5,0.34,0.77c0.06,0.26,0.05,0.54-0.02,0.82c-0.07,0.28-0.21,0.56-0.43,0.84
		c-0.19,0.24-0.41,0.42-0.65,0.55c-0.25,0.13-0.5,0.2-0.75,0.23c-0.26,0.03-0.5,0.01-0.74-0.06c-0.24-0.07-0.45-0.17-0.64-0.32
		L526.43,486.59z"/>
	<path class="st8" d="M527.69,488.93l-0.78,0.95l-6.61-5.42l0.78-0.95L527.69,488.93z"/>
	<path class="st8" d="M524.61,489.51c0.26,0.22,0.46,0.46,0.58,0.73c0.12,0.26,0.19,0.52,0.19,0.78s-0.04,0.51-0.13,0.76
		c-0.09,0.24-0.21,0.46-0.37,0.65c-0.16,0.19-0.35,0.35-0.58,0.48c-0.22,0.13-0.47,0.21-0.72,0.25s-0.53,0.02-0.81-0.06
		s-0.55-0.23-0.81-0.45l-3.45-2.91c-0.27-0.23-0.46-0.47-0.59-0.73c-0.12-0.26-0.18-0.52-0.19-0.78c-0.01-0.26,0.04-0.51,0.13-0.76
		c0.09-0.24,0.21-0.46,0.38-0.65s0.35-0.35,0.58-0.48s0.47-0.21,0.72-0.25c0.26-0.04,0.52-0.02,0.8,0.05
		c0.28,0.08,0.55,0.23,0.82,0.46L524.61,489.51z M520.37,487.54c-0.23-0.19-0.45-0.27-0.66-0.23s-0.39,0.14-0.54,0.31
		s-0.22,0.37-0.21,0.58c0,0.22,0.12,0.42,0.34,0.61l3.45,2.91c0.23,0.19,0.45,0.27,0.66,0.23s0.39-0.14,0.54-0.31
		c0.14-0.17,0.22-0.37,0.21-0.58c0-0.22-0.12-0.42-0.34-0.61L520.37,487.54z"/>
	<path class="st8" d="M522.75,494.82l-0.78,0.88l-5.09-2.01l-0.02,0.02l3.87,3.4l-0.81,0.92l-6.42-5.64l0.76-0.87l5.09,1.98
		l0.02-0.02l-3.86-3.39l0.81-0.92L522.75,494.82z"/>
	<path class="st8" d="M519.11,498.95l-2.46,2.7l-0.85-0.78l1.63-1.79l-1.85-1.69l-1.42,1.56l-0.85-0.78l1.42-1.56l-1.85-1.69
		l-1.63,1.79l-0.91-0.82l2.46-2.7L519.11,498.95z"/>
	<path class="st8" d="M514.47,503.98l-1.26,1.31c-0.48,0.5-0.99,0.75-1.53,0.75c-0.54,0-1.05-0.25-1.55-0.73l-2.88-2.77
		c-0.58-0.55-0.87-1.1-0.87-1.65s0.24-1.08,0.75-1.6l1.18-1.23L514.47,503.98z M508.29,499.74l-0.39,0.41
		c-0.24,0.25-0.35,0.48-0.32,0.71c0.02,0.22,0.17,0.46,0.43,0.72l2.97,2.85c0.24,0.23,0.48,0.36,0.7,0.39
		c0.23,0.03,0.46-0.08,0.71-0.34l0.39-0.41L508.29,499.74z"/>
	<path class="st8" d="M510.83,507.73l-0.86,0.87l-6.07-6.01l0.86-0.87L510.83,507.73z"/>
	<path class="st8" d="M507.44,511.12l-1.32,1.28c-0.24,0.23-0.48,0.41-0.73,0.52c-0.25,0.12-0.52,0.16-0.83,0.15
		c-0.31-0.02-0.59-0.1-0.86-0.26c-0.27-0.16-0.58-0.42-0.93-0.79c-0.26-0.27-0.47-0.52-0.62-0.74c-0.15-0.22-0.26-0.47-0.32-0.74
		c-0.07-0.32-0.06-0.63,0.03-0.94s0.3-0.62,0.63-0.94l0.45-0.43l-2.32-2.4l0.88-0.85L507.44,511.12z M503.74,509.06l-0.42,0.41
		c-0.18,0.17-0.29,0.33-0.34,0.48s-0.05,0.29-0.01,0.42c0.04,0.13,0.12,0.27,0.23,0.4c0.11,0.13,0.25,0.28,0.4,0.44
		c0.14,0.14,0.28,0.28,0.41,0.4s0.27,0.21,0.4,0.26c0.14,0.05,0.28,0.06,0.42,0.03s0.3-0.13,0.48-0.3l0.46-0.44L503.74,509.06z"/>
	<path class="st8" d="M503.17,515.21l-0.75,0.7l-7.23-4.94l0.89-0.84l1.52,1.1l1.22-1.14l-0.99-1.59l0.89-0.83L503.17,515.21z
		 M501.12,513.76l0.02-0.02l-1.68-2.67l-0.89,0.84L501.12,513.76z"/>
	<path class="st8" d="M499.64,516.91l1.05-0.95l0.77,0.85l-3,2.73l-0.77-0.85l1.05-0.95l-4.97-5.47l0.91-0.82L499.64,516.91z"/>
	<path class="st8" d="M496.59,519.64l1.06-0.94l0.76,0.86l-3.04,2.68l-0.76-0.87l1.06-0.94l-4.88-5.55l0.92-0.81L496.59,519.64z"/>
	<path class="st8" d="M491.04,516.31l-0.92,0.8l-0.8-0.92l0.92-0.8L491.04,516.31z"/>
</g>
<g>
	<path class="st7" d="M572.87,377.6c-5.88,25.75-15.58,50.03-28.49,72.23"/>
	<path class="st8" d="M577.82,392.74l-0.55,1.89c-0.4,1.38-1.41,1.84-3.01,1.37c-0.48-0.14-0.86-0.33-1.16-0.58
		c-0.3-0.25-0.5-0.59-0.59-1.03l-4.11,0.18l0.36-1.25l3.82-0.08l0.21-0.7l-3.5-1.02l0.34-1.18L577.82,392.74z M573.82,392.85
		l-0.19,0.67c-0.06,0.21-0.08,0.38-0.06,0.52s0.08,0.26,0.17,0.35c0.09,0.1,0.21,0.18,0.36,0.25c0.15,0.07,0.33,0.13,0.54,0.19
		c0.21,0.06,0.39,0.1,0.56,0.12c0.16,0.02,0.31,0.01,0.45-0.03c0.13-0.04,0.25-0.12,0.34-0.23c0.09-0.11,0.17-0.28,0.23-0.49
		l0.18-0.61L573.82,392.85z"/>
	<path class="st8" d="M568.83,399.6c-0.27-0.08-0.5-0.21-0.7-0.38s-0.36-0.37-0.47-0.59s-0.19-0.47-0.22-0.73
		c-0.03-0.26,0-0.52,0.08-0.78c0.08-0.26,0.21-0.49,0.38-0.69s0.37-0.36,0.59-0.47s0.47-0.19,0.73-0.22c0.26-0.03,0.52,0,0.79,0.08
		l6.32,1.98l-0.37,1.17l-6.21-1.94c-0.29-0.09-0.53-0.09-0.71,0c-0.18,0.09-0.3,0.25-0.37,0.45s-0.05,0.4,0.04,0.58
		s0.29,0.32,0.58,0.41l6.21,1.94l-0.37,1.17L568.83,399.6z"/>
	<path class="st8" d="M572.88,402.07c0.33,0.11,0.6,0.26,0.81,0.46c0.21,0.2,0.37,0.42,0.47,0.66c0.1,0.24,0.15,0.49,0.16,0.75
		s-0.03,0.51-0.11,0.74c-0.08,0.23-0.2,0.45-0.36,0.66c-0.16,0.2-0.35,0.37-0.58,0.5c-0.23,0.13-0.48,0.21-0.77,0.24
		c-0.29,0.03-0.6-0.01-0.92-0.12l-4.28-1.43c-0.33-0.11-0.61-0.27-0.81-0.46c-0.21-0.2-0.36-0.42-0.46-0.66
		c-0.1-0.24-0.15-0.49-0.16-0.75c-0.01-0.26,0.03-0.51,0.11-0.74c0.08-0.24,0.2-0.46,0.36-0.66s0.35-0.37,0.58-0.5
		c0.23-0.13,0.48-0.21,0.76-0.24c0.29-0.03,0.59,0.01,0.93,0.12L572.88,402.07z M568.21,401.8c-0.28-0.09-0.51-0.09-0.7,0.03
		s-0.31,0.27-0.38,0.49c-0.07,0.21-0.07,0.42,0.01,0.62c0.08,0.2,0.26,0.35,0.54,0.44l4.28,1.43c0.28,0.09,0.51,0.08,0.7-0.03
		s0.31-0.27,0.38-0.49c0.07-0.21,0.07-0.42-0.01-0.62c-0.08-0.2-0.26-0.35-0.54-0.44L568.21,401.8z"/>
	<path class="st8" d="M573.1,407.73l-0.41,1.15l-6.9-2.45l-0.81,2.28l-1.15-0.41l1.22-3.44L573.1,407.73z"/>
	<path class="st8" d="M569.69,411.27c0.32,0.12,0.58,0.28,0.79,0.49s0.35,0.43,0.45,0.67c0.09,0.24,0.14,0.5,0.13,0.75
		c0,0.26-0.05,0.5-0.14,0.74c-0.09,0.23-0.21,0.45-0.38,0.64c-0.17,0.2-0.37,0.36-0.6,0.48s-0.49,0.19-0.78,0.21
		c-0.29,0.02-0.59-0.03-0.92-0.15l-4.22-1.59c-0.33-0.12-0.59-0.29-0.8-0.49s-0.35-0.43-0.44-0.67s-0.14-0.5-0.13-0.75
		s0.05-0.5,0.14-0.74c0.09-0.23,0.21-0.45,0.38-0.64c0.17-0.2,0.37-0.36,0.6-0.48c0.23-0.12,0.49-0.19,0.77-0.22
		c0.29-0.02,0.59,0.03,0.92,0.15L569.69,411.27z M565.04,410.83c-0.28-0.1-0.51-0.1-0.7,0c-0.19,0.1-0.32,0.26-0.4,0.47
		c-0.08,0.21-0.08,0.42-0.01,0.62c0.07,0.2,0.25,0.36,0.53,0.46l4.22,1.59c0.28,0.1,0.51,0.1,0.7,0s0.32-0.26,0.4-0.47
		c0.08-0.21,0.08-0.42,0.01-0.62c-0.07-0.2-0.25-0.36-0.53-0.46L565.04,410.83z"/>
	<path class="st8" d="M568.87,419.05l-0.69,1.68c-0.26,0.64-0.64,1.06-1.14,1.26c-0.5,0.19-1.07,0.16-1.71-0.1l-3.7-1.51
		c-0.74-0.3-1.21-0.71-1.42-1.21s-0.17-1.09,0.1-1.77l0.64-1.58L568.87,419.05z M561.56,417.39l-0.21,0.52
		c-0.13,0.32-0.14,0.58-0.04,0.78s0.33,0.37,0.67,0.51l3.81,1.56c0.31,0.13,0.58,0.16,0.8,0.11s0.4-0.25,0.54-0.58l0.21-0.52
		L561.56,417.39z"/>
	<path class="st8" d="M566.88,423.9l-1.44,3.35l-1.06-0.46l0.96-2.23l-2.3-0.99l-0.83,1.94l-1.06-0.46l0.83-1.94l-2.3-0.99
		l-0.96,2.23l-1.12-0.48l1.44-3.35L566.88,423.9z"/>
	<path class="st8" d="M565.07,428.08l-0.5,1.12l-6.67-3.01l-1,2.21l-1.12-0.5l1.5-3.33L565.07,428.08z"/>
	<path class="st8" d="M554.55,434.91c-0.24-0.11-0.44-0.27-0.62-0.46c-0.17-0.19-0.3-0.41-0.39-0.65s-0.13-0.49-0.12-0.74
		c0.01-0.26,0.07-0.51,0.19-0.76c0.1-0.21,0.23-0.41,0.39-0.6s0.35-0.33,0.58-0.44c0.22-0.11,0.48-0.16,0.76-0.16
		c0.29,0,0.6,0.08,0.96,0.25l4.24,2.04c0.25,0.12,0.46,0.28,0.64,0.47c0.17,0.19,0.3,0.4,0.38,0.64s0.12,0.48,0.1,0.75
		c-0.02,0.26-0.09,0.53-0.22,0.79c-0.12,0.25-0.28,0.46-0.47,0.64s-0.41,0.3-0.65,0.38s-0.49,0.11-0.76,0.09s-0.54-0.09-0.81-0.22
		l-0.43-0.21l0.53-1.1l0.37,0.18c0.22,0.1,0.43,0.13,0.65,0.09c0.22-0.05,0.38-0.17,0.48-0.38c0.13-0.27,0.13-0.5,0.01-0.67
		c-0.12-0.17-0.32-0.32-0.58-0.45l-3.93-1.9c-0.22-0.11-0.43-0.15-0.63-0.12s-0.36,0.16-0.48,0.41c-0.03,0.07-0.06,0.16-0.07,0.25
		s-0.01,0.19,0.01,0.29c0.03,0.1,0.08,0.19,0.16,0.28s0.2,0.17,0.35,0.25l0.38,0.18l-0.53,1.1L554.55,434.91z"/>
	<path class="st8" d="M560.02,438.82l-0.83,1.64c-0.15,0.3-0.32,0.54-0.52,0.73s-0.44,0.33-0.73,0.41c-0.29,0.08-0.59,0.09-0.9,0.03
		s-0.68-0.21-1.14-0.44c-0.34-0.17-0.61-0.33-0.83-0.5c-0.22-0.16-0.4-0.36-0.54-0.59c-0.17-0.28-0.27-0.57-0.28-0.89
		s0.08-0.68,0.29-1.09l0.28-0.56l-2.98-1.51l0.55-1.09L560.02,438.82z M555.85,438.08l-0.26,0.52c-0.11,0.22-0.17,0.41-0.16,0.56
		s0.04,0.29,0.13,0.4s0.2,0.21,0.35,0.3c0.15,0.09,0.32,0.18,0.52,0.28c0.18,0.09,0.35,0.17,0.52,0.24
		c0.17,0.07,0.32,0.11,0.47,0.11c0.14,0.01,0.28-0.03,0.41-0.11c0.13-0.08,0.24-0.23,0.35-0.44l0.29-0.57L555.85,438.08z"/>
</g>
<g>
	<path class="st7" d="M578.74,301.09c0.43,6.1,0.65,12.26,0.65,18.46c0,19.95-2.25,39.38-6.51,58.04"/>
	<path class="st8" d="M587.88,314.24l0.02,1.97c0.02,1.44-0.81,2.17-2.48,2.19c-0.5,0.01-0.92-0.07-1.28-0.22
		c-0.36-0.15-0.65-0.42-0.87-0.81l-3.88,1.37l-0.02-1.3l3.63-1.18l-0.01-0.73l-3.65,0.04l-0.01-1.22L587.88,314.24z M584.08,315.51
		l0.01,0.7c0,0.22,0.04,0.39,0.1,0.51c0.06,0.13,0.15,0.22,0.26,0.29c0.11,0.07,0.25,0.11,0.42,0.13s0.35,0.03,0.57,0.03
		c0.22,0,0.41-0.02,0.57-0.04c0.16-0.03,0.3-0.08,0.42-0.16c0.11-0.08,0.2-0.18,0.25-0.32c0.05-0.14,0.08-0.32,0.08-0.54l-0.01-0.64
		L584.08,315.51z"/>
	<path class="st8" d="M581.28,323.39c-0.28,0-0.54-0.06-0.78-0.16s-0.45-0.25-0.63-0.43c-0.18-0.18-0.32-0.39-0.42-0.63
		c-0.1-0.24-0.15-0.5-0.15-0.77c0-0.27,0.06-0.53,0.16-0.77c0.11-0.24,0.25-0.45,0.43-0.63c0.18-0.18,0.39-0.32,0.63-0.42
		c0.24-0.1,0.5-0.15,0.78-0.15l6.62,0.05l-0.01,1.22l-6.5-0.04c-0.3,0-0.53,0.07-0.67,0.21c-0.14,0.14-0.22,0.32-0.22,0.54
		c0,0.22,0.07,0.4,0.21,0.54c0.14,0.14,0.37,0.22,0.67,0.22l6.5,0.04l-0.01,1.22L581.28,323.39z"/>
	<path class="st8" d="M585.87,324.58c0.34,0.01,0.65,0.08,0.91,0.2s0.47,0.29,0.64,0.49c0.17,0.2,0.29,0.42,0.37,0.67
		c0.08,0.25,0.12,0.49,0.11,0.74c-0.01,0.25-0.06,0.49-0.15,0.73c-0.09,0.24-0.23,0.46-0.41,0.65c-0.18,0.19-0.4,0.34-0.67,0.46
		c-0.27,0.11-0.57,0.17-0.92,0.16l-4.51-0.12c-0.35-0.01-0.66-0.08-0.91-0.2c-0.26-0.13-0.47-0.29-0.64-0.49
		c-0.17-0.2-0.29-0.42-0.37-0.67c-0.08-0.25-0.12-0.49-0.11-0.74c0.01-0.25,0.06-0.49,0.15-0.73c0.09-0.24,0.23-0.46,0.41-0.65
		c0.18-0.19,0.4-0.34,0.66-0.46c0.26-0.11,0.57-0.17,0.92-0.16L585.87,324.58z M581.33,325.69c-0.3-0.01-0.52,0.07-0.66,0.23
		c-0.14,0.16-0.22,0.35-0.22,0.58s0.06,0.42,0.19,0.59c0.14,0.17,0.35,0.25,0.65,0.26l4.51,0.12c0.3,0.01,0.52-0.07,0.66-0.23
		s0.22-0.35,0.23-0.58s-0.06-0.42-0.2-0.59c-0.14-0.17-0.35-0.26-0.65-0.26L581.33,325.69z"/>
	<path class="st8" d="M587.73,329.92l-0.05,1.22l-7.31-0.32l-0.11,2.42l-1.22-0.05l0.16-3.64L587.73,329.92z"/>
	<path class="st8" d="M587.52,334.47l-0.07,1.22l-8.53-0.49l0.07-1.22L587.52,334.47z"/>
	<path class="st8" d="M587.22,339.28l-0.14,1.81c-0.06,0.69-0.29,1.21-0.71,1.54c-0.42,0.34-0.97,0.48-1.66,0.42l-3.98-0.32
		c-0.8-0.06-1.37-0.3-1.72-0.72c-0.35-0.42-0.49-0.99-0.43-1.71l0.14-1.7L587.22,339.28z M579.75,339.91l-0.04,0.56
		c-0.03,0.34,0.04,0.59,0.2,0.75s0.42,0.25,0.79,0.28l4.1,0.33c0.33,0.03,0.6-0.02,0.79-0.14c0.19-0.12,0.31-0.36,0.33-0.72
		l0.04-0.56L579.75,339.91z"/>
	<path class="st8" d="M586.78,344.48l-0.11,1.22l-8.51-0.8l0.12-1.22L586.78,344.48z"/>
	<path class="st8" d="M586.31,349.25l-0.21,1.82c-0.04,0.33-0.12,0.62-0.23,0.87s-0.3,0.46-0.55,0.64
		c-0.25,0.18-0.52,0.29-0.83,0.34c-0.31,0.04-0.71,0.04-1.22-0.02c-0.37-0.04-0.69-0.1-0.95-0.18c-0.26-0.08-0.5-0.2-0.71-0.37
		c-0.26-0.2-0.45-0.45-0.57-0.74c-0.12-0.3-0.16-0.67-0.1-1.12l0.07-0.62l-3.31-0.39l0.14-1.22L586.31,349.25z M582.14,350
		l-0.07,0.58c-0.03,0.25-0.02,0.44,0.04,0.58s0.14,0.25,0.26,0.33c0.12,0.08,0.26,0.13,0.43,0.17c0.17,0.03,0.37,0.06,0.58,0.09
		c0.2,0.02,0.39,0.04,0.57,0.05c0.18,0.01,0.34-0.01,0.48-0.05s0.25-0.13,0.34-0.24c0.09-0.12,0.15-0.3,0.18-0.54l0.07-0.63
		L582.14,350z"/>
	<path class="st8" d="M585.59,355.13l-0.14,1.01l-8.72,0.75l0.16-1.21l1.87-0.11l0.22-1.65l-1.77-0.6l0.16-1.21L585.59,355.13z
		 M583.08,355.31l0-0.02l-2.99-1.01l-0.16,1.21L583.08,355.31z"/>
	<path class="st8" d="M583.93,358.69l0.21-1.4l1.14,0.17l-0.6,4.01l-1.14-0.17l0.21-1.4l-7.31-1.09l0.18-1.21L583.93,358.69z"/>
	<path class="st8" d="M583.31,362.7l0.23-1.4l1.14,0.19l-0.66,4l-1.14-0.19l0.23-1.4l-7.29-1.2l0.2-1.21L583.31,362.7z"/>
	<path class="st8" d="M576.89,363.68l-0.21,1.21l-1.21-0.21l0.21-1.21L576.89,363.68z"/>
</g>
<g>
	<path class="st7" d="M561.6,224.94c9.34,23.87,15.26,49.46,17.13,76.16"/>
	<path class="st8" d="M575.19,241.53l-0.41-1.36l1.1-0.33l1.17,3.88l-1.1,0.33l-0.41-1.36l-7.08,2.14l-0.35-1.17L575.19,241.53z"/>
	<path class="st8" d="M577.24,244.35l1,3.51l-1.11,0.32l-0.66-2.33l-2.41,0.69l0.58,2.03l-1.11,0.32l-0.58-2.03l-2.41,0.69
		l0.67,2.33l-1.18,0.34l-1-3.51L577.24,244.35z"/>
	<path class="st8" d="M573.06,254.18c-0.25,0.07-0.51,0.08-0.77,0.05s-0.5-0.11-0.71-0.24c-0.22-0.12-0.41-0.29-0.58-0.49
		c-0.17-0.2-0.28-0.43-0.35-0.69c-0.06-0.22-0.09-0.46-0.09-0.71s0.05-0.49,0.15-0.71s0.26-0.43,0.48-0.62
		c0.22-0.19,0.51-0.33,0.89-0.43l4.55-1.21c0.27-0.07,0.53-0.09,0.79-0.06c0.26,0.03,0.49,0.11,0.71,0.23
		c0.22,0.12,0.4,0.29,0.56,0.5c0.16,0.21,0.28,0.46,0.35,0.74c0.07,0.27,0.09,0.53,0.06,0.79s-0.12,0.49-0.25,0.71
		s-0.3,0.4-0.52,0.57c-0.22,0.16-0.47,0.28-0.76,0.36l-0.46,0.12l-0.31-1.18l0.39-0.1c0.23-0.06,0.42-0.18,0.55-0.36
		c0.13-0.18,0.17-0.38,0.11-0.6c-0.08-0.29-0.22-0.46-0.43-0.51c-0.21-0.05-0.45-0.04-0.73,0.04l-4.22,1.12
		c-0.24,0.06-0.43,0.17-0.56,0.32c-0.13,0.15-0.17,0.36-0.09,0.63c0.02,0.08,0.06,0.16,0.11,0.24c0.05,0.08,0.12,0.15,0.2,0.21
		s0.18,0.09,0.3,0.11c0.12,0.02,0.26,0,0.42-0.04l0.41-0.11l0.31,1.18L573.06,254.18z"/>
	<path class="st8" d="M572.62,255.24l0.3,1.19l-1.19,0.3l-0.3-1.19L572.62,255.24z"/>
	<path class="st8" d="M579.32,262.43l-0.27-1.19l0.27-0.06c0.27-0.06,0.49-0.18,0.66-0.35c0.17-0.17,0.22-0.41,0.15-0.72
		c-0.04-0.16-0.1-0.29-0.19-0.38c-0.09-0.09-0.18-0.15-0.3-0.19c-0.11-0.04-0.23-0.05-0.37-0.05s-0.27,0.02-0.41,0.06
		c-0.16,0.04-0.3,0.07-0.41,0.11c-0.11,0.04-0.2,0.09-0.27,0.15s-0.13,0.15-0.17,0.25s-0.08,0.24-0.1,0.41l-0.16,1
		c-0.04,0.29-0.11,0.53-0.21,0.72c-0.1,0.19-0.23,0.36-0.39,0.49c-0.16,0.13-0.36,0.24-0.59,0.32c-0.23,0.09-0.5,0.16-0.8,0.23
		c-0.35,0.08-0.68,0.12-1,0.12c-0.32,0-0.6-0.06-0.85-0.17c-0.25-0.11-0.47-0.29-0.65-0.52c-0.18-0.24-0.32-0.55-0.41-0.93
		c-0.07-0.29-0.08-0.57-0.03-0.84c0.04-0.27,0.13-0.52,0.27-0.74c0.13-0.22,0.31-0.41,0.53-0.57c0.22-0.16,0.47-0.27,0.75-0.34
		l0.45-0.1l0.27,1.19l-0.38,0.08c-0.22,0.05-0.4,0.16-0.55,0.33s-0.18,0.4-0.12,0.71c0.05,0.2,0.11,0.35,0.2,0.45s0.19,0.17,0.3,0.2
		c0.12,0.03,0.26,0.04,0.42,0.02c0.16-0.02,0.33-0.05,0.52-0.09c0.22-0.05,0.4-0.1,0.53-0.15c0.14-0.05,0.24-0.11,0.32-0.18
		c0.07-0.07,0.13-0.16,0.16-0.26s0.07-0.23,0.09-0.4l0.16-0.93c0.09-0.56,0.29-0.97,0.6-1.23c0.31-0.25,0.72-0.44,1.25-0.56
		c0.31-0.07,0.62-0.1,0.92-0.07c0.3,0.02,0.57,0.09,0.81,0.22c0.24,0.12,0.45,0.3,0.63,0.53s0.31,0.52,0.39,0.86
		c0.07,0.3,0.07,0.58,0.02,0.85c-0.05,0.27-0.15,0.51-0.29,0.73s-0.31,0.4-0.51,0.54c-0.2,0.14-0.42,0.24-0.65,0.3L579.32,262.43z"
		/>
	<path class="st8" d="M576.22,268.03c-0.26,0.05-0.51,0.06-0.77,0.01c-0.25-0.05-0.49-0.14-0.7-0.28s-0.39-0.31-0.55-0.52
		c-0.15-0.21-0.26-0.45-0.31-0.71c-0.05-0.23-0.06-0.46-0.05-0.71s0.08-0.48,0.19-0.7c0.11-0.22,0.28-0.42,0.51-0.59
		c0.23-0.17,0.53-0.3,0.91-0.38l4.61-0.96c0.27-0.06,0.54-0.06,0.79-0.02c0.25,0.04,0.49,0.14,0.69,0.27
		c0.21,0.14,0.39,0.31,0.53,0.53c0.15,0.22,0.25,0.47,0.31,0.76c0.06,0.27,0.06,0.54,0.01,0.79c-0.05,0.26-0.14,0.49-0.29,0.7
		c-0.14,0.21-0.32,0.39-0.55,0.54s-0.48,0.25-0.77,0.31l-0.47,0.1l-0.25-1.2l0.4-0.08c0.24-0.05,0.42-0.16,0.57-0.33
		s0.19-0.37,0.15-0.59c-0.06-0.3-0.2-0.48-0.4-0.54c-0.21-0.06-0.45-0.06-0.73,0l-4.28,0.89c-0.24,0.05-0.44,0.15-0.58,0.29
		c-0.14,0.14-0.19,0.35-0.13,0.62c0.02,0.08,0.05,0.16,0.09,0.24s0.11,0.16,0.19,0.22s0.18,0.1,0.3,0.13
		c0.12,0.02,0.26,0.02,0.43-0.02l0.41-0.09l0.25,1.2L576.22,268.03z"/>
	<path class="st8" d="M580.95,268.11c0.34-0.06,0.65-0.06,0.93,0.01s0.52,0.18,0.73,0.35c0.21,0.16,0.37,0.35,0.5,0.58
		s0.22,0.46,0.27,0.7s0.05,0.49,0.01,0.75c-0.04,0.26-0.13,0.5-0.26,0.72c-0.13,0.22-0.32,0.42-0.55,0.59s-0.53,0.28-0.86,0.35
		l-4.43,0.83c-0.35,0.06-0.66,0.06-0.94-0.01c-0.28-0.07-0.52-0.19-0.72-0.35c-0.21-0.16-0.37-0.35-0.5-0.58s-0.22-0.46-0.27-0.7
		s-0.05-0.49-0.01-0.75c0.04-0.26,0.13-0.5,0.26-0.72c0.13-0.22,0.32-0.42,0.55-0.59s0.52-0.28,0.87-0.35L580.95,268.11z
		 M576.74,270.14c-0.29,0.05-0.49,0.18-0.6,0.36s-0.14,0.39-0.1,0.61c0.04,0.22,0.15,0.4,0.31,0.53s0.4,0.18,0.69,0.12l4.43-0.83
		c0.29-0.05,0.49-0.18,0.6-0.36s0.14-0.39,0.1-0.61c-0.04-0.22-0.15-0.4-0.31-0.53s-0.4-0.18-0.69-0.12L576.74,270.14z"/>
	<path class="st8" d="M578.02,277.95c-0.28,0.05-0.54,0.04-0.79-0.02c-0.25-0.06-0.48-0.17-0.69-0.32
		c-0.21-0.15-0.38-0.33-0.52-0.55c-0.14-0.22-0.24-0.46-0.28-0.73s-0.04-0.53,0.03-0.78c0.06-0.25,0.17-0.48,0.32-0.69
		c0.15-0.21,0.33-0.38,0.55-0.52c0.22-0.14,0.47-0.24,0.74-0.28l6.53-1.1l0.2,1.21l-6.41,1.08c-0.3,0.05-0.51,0.16-0.63,0.32
		c-0.12,0.17-0.16,0.35-0.12,0.57c0.04,0.21,0.14,0.38,0.3,0.5s0.4,0.15,0.7,0.1l6.41-1.08l0.2,1.21L578.02,277.95z"/>
	<path class="st8" d="M583.72,279.07l-0.21-1.4l1.14-0.17l0.6,4.01l-1.14,0.17l-0.21-1.4l-7.31,1.1l-0.18-1.21L583.72,279.07z"/>
</g>
<g>
	<path class="st7" d="M522.83,157.78c16.08,20.16,29.21,42.76,38.77,67.16"/>
	<path class="st8" d="M539.41,167.68l-0.8-1.17l0.95-0.65l2.3,3.34l-0.95,0.65l-0.8-1.17l-6.09,4.2l-0.69-1.01L539.41,167.68z"/>
	<path class="st8" d="M542.59,170.31l0.57,0.85l-6.04,6.33l-0.68-1.02l1.33-1.32l-0.93-1.39l-1.73,0.72l-0.68-1.02L542.59,170.31z
		 M540.83,172.1l-0.01-0.02l-2.91,1.22l0.68,1.02L540.83,172.1z"/>
	<path class="st8" d="M544.61,173.35l0.99,1.55c0.18,0.28,0.3,0.56,0.37,0.82c0.06,0.26,0.06,0.54-0.02,0.84s-0.22,0.56-0.43,0.79
		c-0.21,0.23-0.53,0.48-0.96,0.76c-0.32,0.2-0.6,0.36-0.85,0.47c-0.25,0.11-0.51,0.16-0.78,0.17c-0.33,0.01-0.63-0.06-0.91-0.21
		c-0.28-0.15-0.55-0.42-0.79-0.8l-0.34-0.53l-2.81,1.8l-0.66-1.03L544.61,173.35z M541.86,176.57l0.32,0.5
		c0.13,0.21,0.27,0.35,0.4,0.43s0.27,0.11,0.41,0.09c0.14-0.01,0.29-0.06,0.44-0.15s0.32-0.19,0.5-0.3
		c0.17-0.11,0.33-0.22,0.47-0.32c0.15-0.11,0.26-0.22,0.34-0.34c0.08-0.12,0.12-0.26,0.11-0.41c-0.01-0.15-0.07-0.32-0.2-0.53
		L544.3,175L541.86,176.57z"/>
	<path class="st8" d="M547.31,177.57l0.96,1.56c0.18,0.29,0.29,0.56,0.35,0.83c0.06,0.26,0.05,0.54-0.03,0.84
		c-0.08,0.29-0.23,0.55-0.44,0.78c-0.21,0.23-0.54,0.47-0.97,0.74c-0.32,0.2-0.61,0.35-0.86,0.45c-0.25,0.1-0.51,0.15-0.79,0.15
		c-0.33,0-0.63-0.07-0.91-0.23s-0.54-0.43-0.78-0.82l-0.33-0.53l-2.84,1.75l-0.64-1.04L547.31,177.57z M544.5,180.74l0.31,0.5
		c0.13,0.21,0.26,0.36,0.39,0.43s0.27,0.11,0.41,0.1c0.14-0.01,0.29-0.06,0.44-0.14s0.33-0.18,0.51-0.29
		c0.17-0.1,0.33-0.21,0.48-0.31c0.15-0.1,0.26-0.22,0.34-0.34c0.08-0.12,0.12-0.25,0.12-0.4c0-0.15-0.07-0.33-0.19-0.53l-0.33-0.54
		L544.5,180.74z"/>
	<path class="st8" d="M549.92,181.84l1.86,3.14l-0.99,0.59l-1.23-2.09l-2.16,1.28l1.08,1.82l-0.99,0.59l-1.07-1.82l-2.16,1.28
		l1.23,2.09l-1.05,0.62l-1.86-3.14L549.92,181.84z"/>
	<path class="st8" d="M553.36,187.76l0.6,1.07l-6.39,3.56l1.18,2.12l-1.07,0.6l-1.78-3.19L553.36,187.76z"/>
	<path class="st8" d="M555.56,191.74l0.58,1.08l-7.52,4.06l-0.58-1.08L555.56,191.74z"/>
	<path class="st8" d="M554.94,194.82c0.3-0.16,0.6-0.25,0.89-0.26c0.29-0.02,0.56,0.02,0.8,0.12s0.46,0.23,0.65,0.4
		c0.19,0.18,0.34,0.37,0.46,0.59s0.19,0.46,0.22,0.72c0.03,0.26,0.02,0.51-0.04,0.77s-0.18,0.49-0.36,0.72s-0.42,0.42-0.73,0.58
		l-0.38,0.2l-0.57-1.09l0.38-0.2c0.26-0.14,0.42-0.31,0.47-0.52c0.05-0.21,0.02-0.41-0.08-0.61c-0.1-0.2-0.26-0.34-0.46-0.42
		c-0.2-0.08-0.43-0.05-0.69,0.08l-4,2.09c-0.26,0.14-0.42,0.31-0.47,0.52c-0.05,0.21-0.02,0.41,0.08,0.61s0.26,0.34,0.46,0.42
		c0.2,0.08,0.43,0.05,0.69-0.08l1.43-0.74l-0.45-0.86l0.96-0.5l1.02,1.95l-2.38,1.24c-0.31,0.16-0.61,0.25-0.9,0.27
		c-0.29,0.01-0.55-0.03-0.79-0.12s-0.46-0.23-0.65-0.4c-0.19-0.18-0.34-0.37-0.46-0.59c-0.11-0.22-0.19-0.46-0.22-0.72
		c-0.03-0.26-0.02-0.51,0.04-0.77c0.06-0.25,0.18-0.49,0.36-0.72s0.42-0.42,0.73-0.58L554.94,194.82z"/>
	<path class="st8" d="M559.17,198.6l0.54,1.1l-3.28,1.63l0.67,1.35l3.28-1.63l0.54,1.1l-7.65,3.8l-0.54-1.1l3.41-1.69l-0.67-1.35
		l-3.41,1.69l-0.54-1.1L559.17,198.6z"/>
	<path class="st8" d="M560.79,204.51l-0.61-1.28l1.04-0.49l1.74,3.66l-1.04,0.49l-0.61-1.28l-6.68,3.17l-0.53-1.11L560.79,204.51z"
		/>
</g>
<g>
	<path class="st7" d="M466.4,105.27c21.32,14.62,40.35,32.34,56.44,52.51"/>
	<path class="st8" d="M489.06,111.56l1.42,1.17c0.26,0.21,0.46,0.44,0.6,0.67c0.14,0.23,0.22,0.5,0.24,0.8
		c0.02,0.31-0.04,0.6-0.17,0.88c-0.13,0.28-0.36,0.62-0.68,1.02c-0.24,0.29-0.46,0.52-0.67,0.7c-0.21,0.18-0.44,0.31-0.7,0.4
		c-0.31,0.11-0.62,0.13-0.93,0.08c-0.32-0.06-0.65-0.23-1-0.52l-0.48-0.4l-2.12,2.57l-0.94-0.78L489.06,111.56z M487.42,115.47
		l0.45,0.38c0.19,0.16,0.36,0.25,0.51,0.28c0.15,0.03,0.29,0.02,0.42-0.04c0.13-0.05,0.25-0.15,0.38-0.27
		c0.12-0.13,0.25-0.27,0.39-0.44c0.13-0.15,0.24-0.3,0.35-0.45c0.1-0.15,0.18-0.29,0.21-0.43c0.04-0.14,0.03-0.28-0.02-0.42
		c-0.05-0.14-0.17-0.29-0.35-0.44l-0.49-0.41L487.42,115.47z"/>
	<path class="st8" d="M491.53,116.23c0.22-0.26,0.47-0.45,0.73-0.57c0.26-0.12,0.52-0.18,0.79-0.19c0.26,0,0.51,0.04,0.75,0.13
		s0.46,0.22,0.65,0.38c0.19,0.16,0.35,0.36,0.47,0.58c0.13,0.23,0.21,0.47,0.25,0.73c0.04,0.26,0.01,0.53-0.07,0.8
		s-0.23,0.55-0.46,0.81l-2.94,3.42c-0.23,0.27-0.47,0.46-0.73,0.58c-0.26,0.12-0.52,0.18-0.78,0.18c-0.26,0-0.51-0.04-0.75-0.13
		c-0.24-0.09-0.46-0.22-0.65-0.38c-0.19-0.16-0.35-0.36-0.47-0.58s-0.21-0.47-0.25-0.73c-0.04-0.26-0.02-0.52,0.06-0.8
		s0.23-0.55,0.46-0.81L491.53,116.23z M489.52,120.45c-0.19,0.22-0.27,0.44-0.24,0.66c0.03,0.21,0.13,0.39,0.3,0.54
		s0.36,0.22,0.58,0.22c0.22,0,0.42-0.11,0.61-0.34l2.94-3.42c0.19-0.22,0.27-0.44,0.24-0.66c-0.03-0.21-0.13-0.39-0.3-0.54
		c-0.17-0.15-0.36-0.22-0.58-0.22c-0.22,0-0.42,0.11-0.61,0.34L489.52,120.45z"/>
	<path class="st8" d="M496.89,118.19l0.88,0.79l-1.86,4.42l0.02,0.02l4.18-2.32l0.88,0.79l-5.71,6.35l-0.91-0.82l3.47-3.86
		l-0.02-0.02l-3.36,1.92l-0.46-0.41l1.56-3.53l-0.02-0.02l-3.47,3.86l-0.91-0.82L496.89,118.19z"/>
	<path class="st8" d="M501.94,122.76l2.66,2.5l-0.79,0.84l-1.77-1.66l-1.72,1.83l1.54,1.44l-0.79,0.84l-1.54-1.44l-1.72,1.83
		l1.77,1.66l-0.84,0.89l-2.66-2.5L501.94,122.76z"/>
	<path class="st8" d="M506.4,130.42l-0.88-0.85l0.19-0.2c0.19-0.2,0.32-0.42,0.36-0.66c0.05-0.24-0.04-0.47-0.26-0.68
		c-0.12-0.12-0.24-0.19-0.36-0.22s-0.24-0.03-0.35,0c-0.11,0.03-0.22,0.08-0.33,0.16c-0.11,0.08-0.21,0.17-0.31,0.27
		c-0.12,0.12-0.21,0.23-0.28,0.32c-0.07,0.09-0.12,0.18-0.14,0.28s-0.03,0.2,0,0.31c0.02,0.11,0.07,0.24,0.14,0.4l0.41,0.92
		c0.12,0.26,0.2,0.51,0.22,0.72c0.02,0.22,0,0.43-0.06,0.62c-0.06,0.2-0.17,0.4-0.32,0.59c-0.15,0.2-0.33,0.41-0.55,0.63
		c-0.25,0.26-0.51,0.47-0.78,0.64c-0.27,0.17-0.53,0.28-0.81,0.32c-0.27,0.04-0.55,0.02-0.83-0.08c-0.28-0.1-0.57-0.28-0.85-0.56
		c-0.21-0.21-0.37-0.44-0.49-0.69s-0.17-0.51-0.18-0.77c-0.01-0.26,0.04-0.51,0.13-0.77c0.09-0.25,0.24-0.48,0.44-0.69l0.32-0.33
		l0.88,0.85l-0.27,0.28c-0.16,0.16-0.25,0.35-0.28,0.57c-0.03,0.22,0.07,0.44,0.29,0.66c0.15,0.15,0.29,0.24,0.41,0.27
		c0.12,0.04,0.25,0.04,0.37,0s0.24-0.11,0.36-0.21s0.25-0.22,0.38-0.36c0.16-0.16,0.28-0.3,0.37-0.41c0.09-0.11,0.15-0.22,0.17-0.32
		c0.02-0.1,0.02-0.2,0-0.31c-0.03-0.1-0.07-0.23-0.14-0.38l-0.38-0.87c-0.23-0.52-0.28-0.97-0.16-1.36
		c0.12-0.38,0.37-0.76,0.74-1.15c0.22-0.23,0.47-0.42,0.73-0.56s0.53-0.23,0.8-0.26s0.54,0,0.82,0.1c0.28,0.09,0.54,0.26,0.79,0.51
		c0.22,0.21,0.38,0.45,0.48,0.7s0.15,0.51,0.16,0.77s-0.04,0.5-0.13,0.73c-0.09,0.23-0.22,0.43-0.39,0.6L506.4,130.42z"/>
	<path class="st8" d="M509.89,133.93l-0.86-0.87l0.2-0.19c0.2-0.2,0.32-0.41,0.38-0.65c0.05-0.24-0.03-0.47-0.25-0.69
		c-0.12-0.12-0.24-0.19-0.36-0.23c-0.12-0.03-0.24-0.03-0.35-0.01s-0.23,0.08-0.34,0.16c-0.11,0.08-0.22,0.16-0.32,0.27
		c-0.12,0.12-0.22,0.22-0.29,0.31c-0.07,0.09-0.12,0.18-0.15,0.27c-0.03,0.09-0.03,0.2-0.01,0.31s0.06,0.24,0.13,0.4l0.39,0.93
		c0.12,0.27,0.19,0.51,0.21,0.73c0.02,0.22-0.01,0.43-0.07,0.62c-0.07,0.2-0.18,0.39-0.33,0.59c-0.15,0.19-0.34,0.4-0.56,0.62
		c-0.26,0.25-0.52,0.46-0.79,0.63c-0.27,0.17-0.54,0.27-0.81,0.31c-0.27,0.04-0.55,0.01-0.83-0.1s-0.56-0.29-0.84-0.57
		c-0.21-0.21-0.37-0.44-0.47-0.7c-0.11-0.26-0.16-0.51-0.16-0.77c0-0.26,0.05-0.51,0.15-0.76c0.1-0.25,0.25-0.48,0.46-0.68
		l0.32-0.32l0.86,0.87l-0.27,0.27c-0.16,0.16-0.26,0.35-0.29,0.57c-0.04,0.22,0.06,0.44,0.28,0.66c0.15,0.15,0.28,0.24,0.41,0.28
		c0.12,0.04,0.25,0.04,0.37,0.01c0.12-0.03,0.24-0.1,0.37-0.2c0.12-0.1,0.26-0.22,0.39-0.35c0.16-0.16,0.28-0.29,0.38-0.41
		c0.09-0.11,0.15-0.22,0.17-0.32c0.03-0.1,0.03-0.2,0-0.31c-0.02-0.1-0.07-0.23-0.13-0.39l-0.36-0.88
		c-0.22-0.53-0.26-0.98-0.14-1.36s0.38-0.76,0.76-1.13c0.23-0.23,0.47-0.41,0.74-0.55s0.53-0.22,0.8-0.25
		c0.27-0.02,0.54,0.01,0.81,0.11c0.27,0.1,0.53,0.27,0.78,0.52c0.21,0.22,0.37,0.45,0.47,0.71c0.1,0.26,0.15,0.52,0.14,0.77
		s-0.05,0.5-0.15,0.73c-0.09,0.23-0.23,0.43-0.4,0.6L509.89,133.93z"/>
	<path class="st8" d="M513.28,133.91l0.7,0.74l-4.86,7.28l-0.85-0.88l1.08-1.53l-1.15-1.21l-1.58,1.01l-0.85-0.88L513.28,133.91z
		 M511.86,135.98l-0.02-0.02l-2.65,1.71l0.85,0.88L511.86,135.98z"/>
</g>
<g>
	<path class="st7" d="M396.73,71.52c25.06,7.77,48.49,19.23,69.66,33.75"/>
	<path class="st8" d="M417.28,71.05l-1.47,0.39l0.48-1.21l1.47-0.39l1.14,0.45l-3.13,7.95l-1.14-0.45L417.28,71.05z"/>
	<path class="st8" d="M419.99,72.1c0.07-0.17,0.17-0.32,0.3-0.44s0.27-0.22,0.43-0.28c0.16-0.06,0.32-0.1,0.5-0.1
		c0.18,0,0.35,0.03,0.52,0.1s0.32,0.17,0.44,0.3c0.12,0.13,0.22,0.27,0.29,0.43s0.1,0.32,0.1,0.5c0,0.18-0.03,0.35-0.1,0.52
		c-0.07,0.17-0.17,0.32-0.3,0.44c-0.13,0.12-0.27,0.22-0.43,0.28s-0.32,0.1-0.5,0.1c-0.18,0-0.35-0.03-0.52-0.1s-0.32-0.17-0.44-0.3
		c-0.12-0.13-0.22-0.27-0.29-0.43c-0.06-0.16-0.1-0.32-0.1-0.5C419.88,72.45,419.92,72.27,419.99,72.1z M420.55,72.34
		c-0.08,0.19-0.08,0.38,0,0.56c0.08,0.18,0.21,0.31,0.4,0.39s0.38,0.08,0.56,0s0.31-0.21,0.39-0.4s0.08-0.38,0-0.56
		s-0.21-0.31-0.4-0.39s-0.38-0.08-0.56,0C420.76,72.01,420.63,72.14,420.55,72.34z"/>
	<path class="st8" d="M425.88,73.19l1.12,0.49l-3.4,7.84l-1.12-0.49L425.88,73.19z"/>
	<path class="st8" d="M428.2,74.19l1.07,0.49l-0.44,4.77l0.02,0.01l3.29-3.47l1.08,0.49l-3.54,7.78l-1.11-0.51l2.15-4.73l-0.02-0.01
		l-2.62,2.84l-0.56-0.25l0.43-3.84l-0.02-0.01l-2.15,4.73l-1.11-0.51L428.2,74.19z"/>
	<path class="st8" d="M434.4,77.04l1.65,0.8c0.3,0.15,0.55,0.31,0.74,0.5s0.33,0.43,0.42,0.72s0.11,0.59,0.05,0.9
		c-0.06,0.31-0.2,0.69-0.42,1.15c-0.16,0.34-0.32,0.62-0.48,0.84c-0.16,0.22-0.35,0.41-0.58,0.55c-0.27,0.18-0.57,0.28-0.89,0.3
		c-0.32,0.02-0.69-0.07-1.1-0.27l-0.56-0.27l-1.45,3l-1.1-0.53L434.4,77.04z M433.74,81.23l0.53,0.26c0.22,0.11,0.41,0.16,0.57,0.15
		c0.15-0.01,0.29-0.05,0.4-0.13c0.11-0.08,0.21-0.2,0.3-0.36c0.09-0.15,0.18-0.33,0.27-0.52c0.09-0.18,0.16-0.35,0.23-0.52
		s0.1-0.32,0.11-0.47c0-0.15-0.04-0.28-0.12-0.4s-0.23-0.24-0.45-0.34l-0.57-0.28L433.74,81.23z"/>
	<path class="st8" d="M438.9,79.23l3.26,1.64l-0.52,1.03l-2.16-1.09l-1.13,2.24l1.89,0.95l-0.52,1.03l-1.89-0.95l-1.13,2.24
		l2.16,1.09l-0.55,1.09l-3.26-1.64L438.9,79.23z"/>
	<path class="st8" d="M441.95,83.03c0.16-0.3,0.36-0.54,0.58-0.72c0.23-0.18,0.47-0.3,0.72-0.36c0.25-0.06,0.51-0.07,0.77-0.04
		s0.5,0.11,0.71,0.23c0.22,0.12,0.42,0.27,0.59,0.46c0.17,0.19,0.31,0.41,0.4,0.65c0.09,0.24,0.13,0.51,0.11,0.8
		c-0.02,0.29-0.11,0.59-0.27,0.89l-0.2,0.38l-1.08-0.57l0.2-0.38c0.14-0.26,0.17-0.49,0.09-0.69c-0.08-0.2-0.22-0.35-0.42-0.46
		s-0.4-0.13-0.61-0.09c-0.21,0.05-0.38,0.2-0.52,0.46l-2.11,3.99c-0.14,0.26-0.17,0.49-0.09,0.69c0.08,0.2,0.22,0.35,0.42,0.46
		s0.4,0.13,0.61,0.09c0.21-0.05,0.38-0.2,0.52-0.46l0.75-1.42l-0.86-0.45l0.5-0.96l1.94,1.02l-1.25,2.38
		c-0.17,0.31-0.36,0.55-0.59,0.73s-0.47,0.29-0.72,0.35c-0.25,0.06-0.51,0.07-0.77,0.04s-0.5-0.11-0.71-0.23
		c-0.22-0.12-0.42-0.27-0.59-0.46c-0.17-0.19-0.31-0.41-0.4-0.65c-0.09-0.24-0.13-0.51-0.12-0.79c0.02-0.29,0.11-0.58,0.27-0.9
		L441.95,83.03z"/>
	<path class="st8" d="M447.54,83.72l1.03,0.57l-0.88,5.4l0.02,0.01l2.49-4.5l1.07,0.59l-4.14,7.48l-1.01-0.56l0.85-5.4l-0.02-0.01
		l-2.49,4.49l-1.07-0.59L447.54,83.72z"/>
	<path class="st8" d="M451.28,88.1c0.17-0.3,0.38-0.53,0.61-0.7c0.24-0.17,0.48-0.28,0.74-0.33c0.26-0.05,0.51-0.05,0.77-0.01
		c0.25,0.05,0.49,0.13,0.7,0.26c0.21,0.12,0.41,0.29,0.57,0.48s0.29,0.42,0.38,0.67c0.08,0.25,0.11,0.51,0.08,0.8
		s-0.13,0.58-0.3,0.88l-2.26,3.9c-0.18,0.3-0.38,0.54-0.62,0.7c-0.23,0.17-0.48,0.27-0.74,0.32c-0.26,0.05-0.51,0.05-0.77,0.01
		c-0.26-0.05-0.49-0.13-0.71-0.26c-0.21-0.12-0.41-0.29-0.57-0.48c-0.17-0.2-0.29-0.42-0.38-0.67s-0.11-0.51-0.08-0.8
		s0.13-0.58,0.3-0.88L451.28,88.1z M450.07,92.62c-0.15,0.26-0.19,0.49-0.12,0.69c0.07,0.2,0.2,0.36,0.4,0.47
		c0.19,0.11,0.4,0.15,0.61,0.11c0.21-0.04,0.39-0.19,0.54-0.44l2.26-3.9c0.15-0.26,0.19-0.49,0.12-0.69
		c-0.07-0.2-0.21-0.36-0.4-0.47c-0.19-0.11-0.4-0.15-0.61-0.11c-0.21,0.04-0.39,0.19-0.54,0.44L450.07,92.62z"/>
</g>
<g>
	<path class="st7" d="M319.74,59.91c26.81,0,52.67,4.06,77,11.61"/>
	<path class="st8" d="M325.91,51.43l1.83,0.05c0.34,0.01,0.63,0.06,0.88,0.16c0.25,0.1,0.48,0.26,0.68,0.49
		c0.2,0.23,0.34,0.5,0.41,0.8s0.1,0.71,0.08,1.22c-0.01,0.38-0.04,0.7-0.09,0.96c-0.05,0.27-0.15,0.51-0.3,0.74
		c-0.18,0.28-0.41,0.49-0.69,0.63c-0.29,0.15-0.66,0.21-1.11,0.2l-0.62-0.02l-0.1,3.33l-1.22-0.04L325.91,51.43z M327.01,55.52
		l0.59,0.02c0.25,0.01,0.44-0.02,0.58-0.09c0.14-0.07,0.24-0.16,0.31-0.29c0.07-0.12,0.11-0.27,0.13-0.45
		c0.02-0.18,0.03-0.37,0.04-0.59c0.01-0.2,0-0.39,0-0.57c-0.01-0.18-0.04-0.34-0.09-0.47c-0.06-0.13-0.15-0.24-0.27-0.32
		c-0.13-0.08-0.31-0.12-0.55-0.13l-0.64-0.02L327.01,55.52z"/>
	<path class="st8" d="M330.9,51.59l1.97,0.09c1.44,0.07,2.12,0.94,2.04,2.61c-0.02,0.5-0.12,0.92-0.29,1.27
		c-0.17,0.35-0.46,0.62-0.86,0.82l1.13,3.96l-1.29-0.06l-0.96-3.7l-0.73-0.04l-0.18,3.64l-1.22-0.06L330.9,51.59z M331.94,55.46
		l0.7,0.03c0.22,0.01,0.39-0.01,0.52-0.06c0.13-0.05,0.23-0.13,0.31-0.24c0.07-0.11,0.13-0.24,0.16-0.41
		c0.03-0.16,0.05-0.35,0.06-0.57c0.01-0.22,0.01-0.41-0.01-0.57c-0.02-0.17-0.06-0.31-0.13-0.43s-0.17-0.21-0.3-0.27
		c-0.13-0.06-0.31-0.1-0.54-0.11l-0.64-0.03L331.94,55.46z"/>
	<path class="st8" d="M335.93,53.86c0.02-0.34,0.1-0.64,0.24-0.9c0.14-0.26,0.31-0.46,0.52-0.62c0.21-0.16,0.44-0.27,0.68-0.34
		c0.25-0.07,0.5-0.1,0.75-0.08c0.25,0.02,0.49,0.08,0.73,0.18c0.24,0.1,0.45,0.25,0.63,0.43c0.18,0.19,0.33,0.41,0.43,0.68
		c0.1,0.27,0.14,0.58,0.12,0.92l-0.3,4.5c-0.02,0.35-0.1,0.65-0.24,0.9c-0.14,0.25-0.31,0.46-0.52,0.61
		c-0.21,0.16-0.44,0.27-0.68,0.34c-0.25,0.07-0.5,0.1-0.75,0.08c-0.25-0.02-0.49-0.08-0.73-0.18c-0.24-0.1-0.45-0.25-0.63-0.43
		s-0.33-0.41-0.43-0.68c-0.1-0.27-0.14-0.58-0.12-0.93L335.93,53.86z M336.84,58.45c-0.02,0.3,0.05,0.52,0.2,0.67
		c0.15,0.15,0.34,0.23,0.57,0.25s0.42-0.04,0.59-0.17c0.17-0.13,0.27-0.34,0.29-0.64l0.3-4.5c0.02-0.29-0.05-0.52-0.2-0.67
		c-0.15-0.15-0.34-0.23-0.57-0.25c-0.22-0.02-0.42,0.04-0.59,0.17c-0.17,0.13-0.27,0.34-0.29,0.64L336.84,58.45z"/>
	<path class="st8" d="M341.12,54.22c0.03-0.34,0.12-0.64,0.26-0.89c0.14-0.25,0.32-0.46,0.53-0.61c0.21-0.15,0.44-0.26,0.69-0.33
		c0.25-0.07,0.5-0.09,0.75-0.07s0.49,0.09,0.72,0.2s0.44,0.26,0.62,0.45c0.18,0.19,0.32,0.42,0.42,0.69s0.13,0.58,0.1,0.92
		l-0.04,0.43l-1.22-0.11l0.04-0.43c0.03-0.29-0.04-0.52-0.19-0.67c-0.15-0.15-0.34-0.24-0.56-0.26c-0.22-0.02-0.42,0.03-0.6,0.16
		c-0.18,0.13-0.28,0.34-0.3,0.63l-0.39,4.49c-0.03,0.29,0.04,0.52,0.19,0.67c0.15,0.15,0.34,0.24,0.56,0.26
		c0.22,0.02,0.42-0.03,0.6-0.16c0.18-0.12,0.28-0.34,0.3-0.63l0.14-1.6l-0.97-0.08l0.09-1.08l2.19,0.19l-0.23,2.68
		c-0.03,0.35-0.12,0.65-0.26,0.9c-0.14,0.25-0.32,0.45-0.53,0.6c-0.21,0.15-0.44,0.26-0.69,0.33c-0.25,0.07-0.5,0.09-0.75,0.07
		s-0.49-0.09-0.72-0.2s-0.44-0.26-0.62-0.45c-0.18-0.19-0.32-0.42-0.42-0.69c-0.1-0.27-0.13-0.58-0.1-0.93L341.12,54.22z"/>
	<path class="st8" d="M345.73,59.97l1.22,0.12l-0.12,1.22l-1.22-0.12L345.73,59.97z"/>
	<path class="st8" d="M351.14,53.18l1.8,0.22c0.69,0.09,1.19,0.34,1.51,0.77c0.32,0.43,0.43,0.99,0.35,1.68l-0.49,3.97
		c-0.1,0.79-0.36,1.36-0.8,1.68c-0.43,0.33-1.01,0.45-1.73,0.36l-1.69-0.21L351.14,53.18z M351.44,60.67l0.56,0.07
		c0.34,0.04,0.59-0.01,0.76-0.17c0.16-0.15,0.27-0.41,0.31-0.78l0.51-4.08c0.04-0.33,0.01-0.6-0.11-0.8
		c-0.11-0.2-0.35-0.32-0.7-0.37l-0.56-0.07L351.44,60.67z"/>
	<path class="st8" d="M356.33,53.85l1.21,0.17l-1.17,8.46l-1.21-0.17L356.33,53.85z"/>
	<path class="st8" d="M361.08,54.53l1.94,0.32c1.42,0.23,2,1.17,1.73,2.82c-0.08,0.49-0.22,0.9-0.44,1.22
		c-0.21,0.33-0.53,0.56-0.95,0.71l0.68,4.06l-1.28-0.21l-0.54-3.78l-0.72-0.12l-0.58,3.6l-1.21-0.2L361.08,54.53z M361.68,58.49
		l0.69,0.11c0.21,0.03,0.39,0.03,0.52-0.01s0.25-0.11,0.33-0.21c0.08-0.1,0.15-0.23,0.2-0.39c0.05-0.16,0.09-0.34,0.13-0.56
		c0.03-0.21,0.05-0.4,0.06-0.57c0-0.17-0.02-0.31-0.08-0.44c-0.06-0.13-0.15-0.23-0.27-0.31c-0.12-0.08-0.3-0.13-0.52-0.17
		l-0.63-0.1L361.68,58.49z"/>
	<path class="st8" d="M366.23,55.38l3.59,0.65l-0.21,1.13l-2.38-0.43l-0.45,2.47l2.08,0.38l-0.21,1.13l-2.08-0.38l-0.45,2.47
		l2.39,0.43l-0.22,1.2l-3.59-0.65L366.23,55.38z"/>
	<path class="st8" d="M370.71,56.2l1.8,0.36c0.33,0.07,0.61,0.17,0.85,0.3c0.23,0.14,0.43,0.33,0.59,0.6
		c0.16,0.26,0.25,0.55,0.27,0.86c0.02,0.31-0.02,0.72-0.12,1.22c-0.07,0.37-0.16,0.68-0.25,0.93c-0.1,0.25-0.24,0.48-0.42,0.68
		c-0.22,0.24-0.48,0.41-0.79,0.51c-0.31,0.1-0.68,0.1-1.13,0.01l-0.61-0.12l-0.65,3.27l-1.2-0.24L370.71,56.2z M371.11,60.42
		l0.58,0.12c0.24,0.05,0.44,0.05,0.59,0.01s0.26-0.12,0.35-0.23c0.09-0.11,0.15-0.25,0.2-0.42c0.05-0.17,0.09-0.36,0.13-0.57
		c0.04-0.2,0.07-0.38,0.09-0.56c0.02-0.18,0.02-0.34-0.01-0.48c-0.03-0.14-0.11-0.26-0.22-0.36s-0.28-0.17-0.52-0.22l-0.62-0.12
		L371.11,60.42z"/>
	<path class="st8" d="M376.51,57.39l1,0.22l0.05,8.75l-1.2-0.26l0.04-1.87l-1.63-0.35l-0.74,1.72l-1.2-0.26L376.51,57.39z
		 M376.49,59.9l-0.02-0.01l-1.24,2.9l1.2,0.26L376.49,59.9z"/>
	<path class="st8" d="M380.09,58.18l1.92,0.46c1.4,0.33,1.91,1.31,1.52,2.94c-0.11,0.48-0.29,0.88-0.52,1.19
		c-0.23,0.31-0.57,0.53-1,0.64l0.38,4.1l-1.26-0.3l-0.26-3.81l-0.71-0.17l-0.84,3.55l-1.19-0.28L380.09,58.18z M380.4,62.18
		l0.68,0.16c0.21,0.05,0.38,0.06,0.52,0.03s0.25-0.09,0.35-0.18s0.17-0.22,0.23-0.37s0.12-0.34,0.17-0.55s0.08-0.4,0.1-0.56
		c0.01-0.17,0-0.31-0.05-0.44c-0.05-0.13-0.13-0.24-0.25-0.32s-0.29-0.15-0.51-0.21l-0.62-0.15L380.4,62.18z"/>
	<path class="st8" d="M385.44,60.66l-1.37-0.35l0.29-1.12l3.93,1L388,61.32l-1.37-0.35l-1.83,7.16l-1.19-0.3L385.44,60.66z"/>
	<path class="st8" d="M388.17,62.26c0.09-0.33,0.23-0.61,0.41-0.83c0.19-0.22,0.4-0.39,0.63-0.51s0.48-0.18,0.74-0.2
		c0.26-0.02,0.51,0,0.75,0.07c0.24,0.07,0.46,0.17,0.68,0.32c0.21,0.15,0.39,0.33,0.53,0.55c0.14,0.22,0.24,0.47,0.28,0.76
		c0.05,0.29,0.02,0.6-0.07,0.93l-1.19,4.35c-0.09,0.34-0.23,0.62-0.42,0.84c-0.18,0.22-0.39,0.39-0.63,0.5s-0.48,0.18-0.74,0.2
		c-0.26,0.02-0.51,0-0.75-0.07s-0.46-0.17-0.68-0.32c-0.21-0.15-0.39-0.33-0.53-0.55s-0.24-0.47-0.29-0.75
		c-0.05-0.28-0.02-0.59,0.07-0.93L388.17,62.26z M388.16,66.93c-0.08,0.29-0.06,0.52,0.06,0.7c0.12,0.18,0.29,0.3,0.51,0.36
		s0.42,0.04,0.62-0.05c0.2-0.09,0.33-0.28,0.41-0.57l1.19-4.35c0.08-0.29,0.06-0.52-0.07-0.7s-0.29-0.3-0.51-0.36
		s-0.42-0.04-0.62,0.05c-0.2,0.09-0.33,0.28-0.41,0.57L388.16,66.93z"/>
</g>
<g>
	<path class="st7" d="M153.21,120.34c45.08-37.72,103.15-60.43,166.53-60.43"/>
	<path class="st8" d="M210.67,74.47l1.68-0.74c0.31-0.13,0.6-0.21,0.87-0.23c0.27-0.02,0.54,0.03,0.83,0.15
		c0.28,0.12,0.52,0.3,0.71,0.55c0.19,0.24,0.39,0.6,0.6,1.07c0.15,0.34,0.26,0.65,0.33,0.91s0.08,0.53,0.04,0.8
		c-0.04,0.32-0.16,0.61-0.35,0.87c-0.19,0.26-0.5,0.47-0.92,0.66l-0.57,0.25l1.34,3.06l-1.12,0.49L210.67,74.47z M213.41,77.7
		l0.54-0.24c0.23-0.1,0.39-0.21,0.48-0.33s0.15-0.25,0.16-0.39s-0.02-0.29-0.08-0.46s-0.13-0.35-0.22-0.55
		c-0.08-0.18-0.16-0.35-0.25-0.52s-0.18-0.29-0.29-0.39c-0.11-0.1-0.24-0.15-0.38-0.17c-0.15-0.02-0.33,0.02-0.55,0.12l-0.58,0.25
		L213.41,77.7z"/>
	<path class="st8" d="M216.07,72.14l0.94-0.39l5.05,7.15l-1.13,0.47l-1.04-1.56l-1.54,0.64l0.37,1.83l-1.13,0.47L216.07,72.14z
		 M217.5,74.21l-0.02,0.01l0.64,3.09l1.13-0.47L217.5,74.21z"/>
	<path class="st8" d="M220,71.77l-1.32,0.53l-0.43-1.07l3.77-1.51l0.43,1.07l-1.31,0.53l2.75,6.86l-1.14,0.45L220,71.77z"/>
	<path class="st8" d="M223.77,70.28l-1.32,0.51l-0.41-1.08l3.79-1.45l0.41,1.08l-1.32,0.51l2.64,6.9l-1.14,0.44L223.77,70.28z"/>
	<path class="st8" d="M232.42,72.91c0.1,0.26,0.14,0.53,0.12,0.79c-0.02,0.26-0.08,0.51-0.19,0.74c-0.11,0.23-0.26,0.44-0.45,0.62
		c-0.19,0.18-0.41,0.32-0.67,0.41c-0.26,0.09-0.51,0.13-0.78,0.12s-0.51-0.08-0.74-0.19s-0.44-0.26-0.62-0.45
		c-0.18-0.19-0.32-0.42-0.41-0.68l-2.26-6.23l1.15-0.42l2.22,6.11c0.1,0.29,0.25,0.47,0.43,0.56c0.18,0.09,0.38,0.09,0.58,0.02
		c0.2-0.07,0.35-0.2,0.43-0.39c0.09-0.18,0.08-0.42-0.03-0.71l-2.22-6.11l1.15-0.42L232.42,72.91z"/>
	<path class="st8" d="M231.97,68.18c-0.11-0.33-0.15-0.63-0.12-0.92s0.11-0.55,0.24-0.77c0.13-0.23,0.3-0.42,0.5-0.58
		c0.2-0.16,0.42-0.28,0.66-0.36c0.23-0.08,0.48-0.12,0.74-0.11c0.26,0,0.51,0.06,0.75,0.16c0.24,0.1,0.46,0.26,0.66,0.47
		c0.2,0.21,0.35,0.48,0.46,0.81l0.14,0.41l-1.16,0.39l-0.14-0.41c-0.09-0.28-0.24-0.46-0.44-0.54s-0.41-0.08-0.62-0.01
		c-0.21,0.07-0.37,0.2-0.48,0.39c-0.11,0.19-0.12,0.42-0.02,0.7l1.45,4.27c0.1,0.28,0.24,0.46,0.44,0.54s0.41,0.08,0.62,0.01
		c0.21-0.07,0.37-0.2,0.48-0.39c0.11-0.19,0.12-0.42,0.02-0.7l-0.52-1.52l-0.92,0.31l-0.35-1.02l2.08-0.71l0.87,2.54
		c0.11,0.33,0.16,0.64,0.12,0.93c-0.03,0.28-0.11,0.54-0.24,0.77c-0.13,0.23-0.3,0.42-0.5,0.58c-0.2,0.16-0.42,0.28-0.66,0.36
		c-0.23,0.08-0.48,0.12-0.74,0.11c-0.26,0-0.51-0.06-0.75-0.16c-0.24-0.1-0.46-0.25-0.66-0.46s-0.35-0.48-0.47-0.81L231.97,68.18z"
		/>
	<path class="st8" d="M236.32,64.59l1.17-0.37l2.23,6.97l2.31-0.74l0.37,1.17l-3.47,1.11L236.32,64.59z"/>
	<path class="st8" d="M240.69,63.21l1.17-0.36l2.5,8.17l-1.17,0.36L240.69,63.21z"/>
	<path class="st8" d="M243.07,62.48l3.5-1.02l0.32,1.11l-2.33,0.68l0.7,2.41l2.03-0.59l0.32,1.11l-2.03,0.59l0.7,2.41l2.33-0.68
		l0.34,1.18l-3.5,1.02L243.07,62.48z"/>
</g>
<g>
	<path class="st7" d="M64.08,273.96c10.87-61.35,43.27-115.25,89.13-153.62"/>
	<path class="st8" d="M87.02,191.16l-0.58,1.08l-0.24-0.13c-0.25-0.13-0.49-0.19-0.73-0.17c-0.24,0.02-0.44,0.17-0.59,0.44
		c-0.08,0.15-0.12,0.28-0.11,0.41s0.04,0.24,0.1,0.34c0.06,0.1,0.14,0.19,0.25,0.28s0.22,0.16,0.35,0.23
		c0.15,0.08,0.28,0.14,0.38,0.19s0.21,0.07,0.31,0.06c0.1,0,0.2-0.03,0.29-0.08c0.1-0.05,0.22-0.13,0.35-0.24l0.77-0.65
		c0.22-0.19,0.43-0.32,0.64-0.41c0.2-0.08,0.41-0.12,0.62-0.11s0.43,0.06,0.66,0.15c0.23,0.09,0.48,0.21,0.76,0.36
		c0.32,0.17,0.59,0.36,0.83,0.57c0.24,0.21,0.41,0.44,0.53,0.69c0.12,0.25,0.16,0.52,0.15,0.82c-0.02,0.3-0.12,0.62-0.31,0.97
		c-0.14,0.26-0.32,0.48-0.53,0.65c-0.21,0.18-0.44,0.3-0.69,0.38c-0.25,0.08-0.5,0.1-0.77,0.08c-0.27-0.02-0.53-0.1-0.78-0.24
		l-0.4-0.22l0.58-1.08l0.34,0.18c0.2,0.11,0.41,0.15,0.63,0.12c0.22-0.03,0.41-0.18,0.55-0.46c0.1-0.18,0.15-0.34,0.15-0.47
		c0-0.13-0.03-0.25-0.1-0.35c-0.07-0.1-0.17-0.2-0.3-0.29c-0.13-0.09-0.28-0.18-0.45-0.27c-0.2-0.11-0.36-0.19-0.5-0.24
		c-0.13-0.05-0.25-0.08-0.35-0.08c-0.1,0-0.2,0.03-0.29,0.09c-0.09,0.05-0.2,0.13-0.33,0.24l-0.73,0.6
		c-0.44,0.36-0.86,0.54-1.26,0.52s-0.83-0.15-1.3-0.4c-0.28-0.15-0.53-0.34-0.74-0.55c-0.21-0.21-0.37-0.45-0.47-0.7
		c-0.1-0.25-0.14-0.52-0.13-0.81c0.02-0.29,0.11-0.59,0.28-0.9c0.15-0.27,0.33-0.48,0.55-0.65s0.45-0.29,0.7-0.36
		c0.25-0.07,0.49-0.09,0.74-0.07s0.47,0.09,0.69,0.21L87.02,191.16z"/>
	<path class="st8" d="M86.75,188.97l-0.7,1.23l-1-0.57l1.99-3.53l1,0.57l-0.7,1.23l6.44,3.63l-0.6,1.07L86.75,188.97z"/>
	<path class="st8" d="M87.38,185.53l0.62-1.06l7.39,4.29l-0.62,1.06L87.38,185.53z"/>
	<path class="st8" d="M88.64,183.38l0.63-1.05l6.28,3.76l1.25-2.08l1.05,0.63l-1.87,3.13L88.64,183.38z"/>
	<path class="st8" d="M90.98,179.49l1.93-3.1l0.98,0.61l-1.28,2.06l2.13,1.32l1.12-1.79l0.98,0.61l-1.12,1.79l2.13,1.32l1.28-2.06
		l1.04,0.65l-1.93,3.1L90.98,179.49z"/>
</g>
<g>
	<path class="st8" d="M47.57,165.12l1.27-2.21l20.88,6.55l-1.53,2.65l-4.42-1.52l-2.09,3.61l3.53,3.07l-1.53,2.65L47.57,165.12z
		 M53.54,167.08l-0.03,0.05l5.95,5.17l1.53-2.65L53.54,167.08z"/>
</g>
<g>
	<path class="st8" d="M314.92,617.11c0-0.66,0.12-1.29,0.38-1.89s0.6-1.12,1.04-1.57c0.44-0.45,0.96-0.81,1.54-1.08
		c0.59-0.27,1.23-0.41,1.91-0.41c0.58,0,1.17,0.08,1.77,0.24c0.6,0.16,1.14,0.44,1.62,0.83c0.48,0.39,0.88,0.91,1.19,1.55
		c0.31,0.64,0.46,1.45,0.46,2.43v11.76c0,0.7-0.12,1.35-0.36,1.95c-0.24,0.6-0.58,1.12-1.02,1.56c-0.44,0.44-0.96,0.79-1.58,1.04
		s-1.29,0.38-2.03,0.38c-0.7,0-1.35-0.12-1.95-0.38c-0.6-0.25-1.12-0.6-1.56-1.05c-0.44-0.45-0.79-0.99-1.04-1.62
		s-0.38-1.32-0.38-2.05v-1.2h3.06v1.02c0,0.6,0.17,1.12,0.51,1.56c0.34,0.44,0.8,0.66,1.38,0.66c0.76,0,1.26-0.23,1.51-0.71
		c0.25-0.47,0.38-1.06,0.38-1.78v-10.92c0-0.62-0.13-1.14-0.4-1.56c-0.27-0.42-0.75-0.63-1.46-0.63c-0.2,0-0.42,0.04-0.65,0.11
		c-0.23,0.07-0.44,0.18-0.63,0.34c-0.19,0.16-0.34,0.38-0.46,0.66s-0.18,0.63-0.18,1.05v1.05h-3.06V617.11z"/>
</g>
<g>
	<path class="st8" d="M589.31,159.81l2.24,3.87c0.49,0.85,0.78,1.65,0.86,2.39c0.09,0.75,0.02,1.44-0.19,2.07
		c-0.21,0.63-0.55,1.19-1.02,1.68c-0.47,0.49-1,0.91-1.61,1.26l-0.67,0.39c-0.5,0.29-0.95,0.5-1.34,0.62
		c-0.39,0.12-0.76,0.18-1.11,0.17c-0.35-0.01-0.69-0.06-1.02-0.17c-0.33-0.11-0.67-0.26-1.01-0.46c0.06,0.79-0.11,1.5-0.52,2.13
		c-0.41,0.63-1.1,1.22-2.07,1.78l-1.04,0.6c-1.63,0.94-3.1,1.27-4.42,0.98s-2.48-1.3-3.48-3.03l-2.09-3.61L589.31,159.81z
		 M575,171.61l0.66,1.14c0.31,0.54,0.63,0.91,0.96,1.12c0.33,0.21,0.68,0.32,1.05,0.31c0.37,0,0.75-0.1,1.15-0.28
		c0.4-0.19,0.83-0.41,1.28-0.67c0.47-0.27,0.86-0.53,1.18-0.78s0.54-0.53,0.68-0.83c0.14-0.3,0.18-0.63,0.13-1
		c-0.05-0.36-0.21-0.79-0.49-1.27l-0.67-1.17L575,171.61z M583.26,166.84l0.69,1.19c0.51,0.88,1.07,1.35,1.69,1.4
		c0.62,0.05,1.35-0.17,2.2-0.66c0.83-0.48,1.36-1.01,1.58-1.59c0.22-0.58,0.08-1.31-0.43-2.19l-0.63-1.09L583.26,166.84z"/>
</g>
</svg>
